solid OpenSCAD_Model
  facet normal -1 0 0
    outer loop
      vertex 0 0 0
      vertex 0 7.8 3.2
      vertex 0 7.8 0
    endloop
  endfacet
  facet normal -1 -0 0
    outer loop
      vertex 0 7.8 3.2
      vertex 0 0 0
      vertex 0 0 3.2
    endloop
  endfacet
  facet normal 0 0 1
    outer loop
      vertex 7.8 7.8 3.2
      vertex 6.3 3.9 3.2
      vertex 7.8 0 3.2
    endloop
  endfacet
  facet normal 0 0 1
    outer loop
      vertex 7.8 7.8 3.2
      vertex 6.29526 4.0507 3.2
      vertex 6.3 3.9 3.2
    endloop
  endfacet
  facet normal 0 0 1
    outer loop
      vertex 7.8 7.8 3.2
      vertex 6.28107 4.2008 3.2
      vertex 6.29526 4.0507 3.2
    endloop
  endfacet
  facet normal 0 0 1
    outer loop
      vertex 7.8 7.8 3.2
      vertex 6.25749 4.34971 3.2
      vertex 6.28107 4.2008 3.2
    endloop
  endfacet
  facet normal 0 0 1
    outer loop
      vertex 7.8 7.8 3.2
      vertex 6.2246 4.49685 3.2
      vertex 6.25749 4.34971 3.2
    endloop
  endfacet
  facet normal 0 0 1
    outer loop
      vertex 7.8 7.8 3.2
      vertex 6.18254 4.64164 3.2
      vertex 6.2246 4.49685 3.2
    endloop
  endfacet
  facet normal 0 0 1
    outer loop
      vertex 7.8 7.8 3.2
      vertex 6.13146 4.7835 3.2
      vertex 6.18254 4.64164 3.2
    endloop
  endfacet
  facet normal 0 0 1
    outer loop
      vertex 7.8 7.8 3.2
      vertex 6.07158 4.92187 3.2
      vertex 6.13146 4.7835 3.2
    endloop
  endfacet
  facet normal 0 0 1
    outer loop
      vertex 7.8 7.8 3.2
      vertex 6.00314 5.05621 3.2
      vertex 6.07158 4.92187 3.2
    endloop
  endfacet
  facet normal 0 0 1
    outer loop
      vertex 7.8 7.8 3.2
      vertex 5.92639 5.18598 3.2
      vertex 6.00314 5.05621 3.2
    endloop
  endfacet
  facet normal 0 0 1
    outer loop
      vertex 7.8 7.8 3.2
      vertex 5.84164 5.31068 3.2
      vertex 5.92639 5.18598 3.2
    endloop
  endfacet
  facet normal 0 0 1
    outer loop
      vertex 7.8 7.8 3.2
      vertex 5.74923 5.42982 3.2
      vertex 5.84164 5.31068 3.2
    endloop
  endfacet
  facet normal 0 0 1
    outer loop
      vertex 7.8 7.8 3.2
      vertex 5.64952 5.54291 3.2
      vertex 5.74923 5.42982 3.2
    endloop
  endfacet
  facet normal 0 0 1
    outer loop
      vertex 7.8 7.8 3.2
      vertex 5.54291 5.64952 3.2
      vertex 5.64952 5.54291 3.2
    endloop
  endfacet
  facet normal 0 0 1
    outer loop
      vertex 7.8 7.8 3.2
      vertex 5.42982 5.74923 3.2
      vertex 5.54291 5.64952 3.2
    endloop
  endfacet
  facet normal 0 0 1
    outer loop
      vertex 7.8 7.8 3.2
      vertex 5.31068 5.84164 3.2
      vertex 5.42982 5.74923 3.2
    endloop
  endfacet
  facet normal 0 0 1
    outer loop
      vertex 7.8 7.8 3.2
      vertex 5.18598 5.92639 3.2
      vertex 5.31068 5.84164 3.2
    endloop
  endfacet
  facet normal 0 0 1
    outer loop
      vertex 7.8 7.8 3.2
      vertex 5.05621 6.00314 3.2
      vertex 5.18598 5.92639 3.2
    endloop
  endfacet
  facet normal 0 0 1
    outer loop
      vertex 7.8 7.8 3.2
      vertex 4.92187 6.07158 3.2
      vertex 5.05621 6.00314 3.2
    endloop
  endfacet
  facet normal 0 0 1
    outer loop
      vertex 7.8 7.8 3.2
      vertex 4.7835 6.13146 3.2
      vertex 4.92187 6.07158 3.2
    endloop
  endfacet
  facet normal 0 0 1
    outer loop
      vertex 7.8 7.8 3.2
      vertex 4.64164 6.18254 3.2
      vertex 4.7835 6.13146 3.2
    endloop
  endfacet
  facet normal 0 0 1
    outer loop
      vertex 7.8 7.8 3.2
      vertex 4.49685 6.2246 3.2
      vertex 4.64164 6.18254 3.2
    endloop
  endfacet
  facet normal 0 0 1
    outer loop
      vertex 7.8 7.8 3.2
      vertex 4.34971 6.25749 3.2
      vertex 4.49685 6.2246 3.2
    endloop
  endfacet
  facet normal 0 0 1
    outer loop
      vertex 7.8 7.8 3.2
      vertex 4.2008 6.28107 3.2
      vertex 4.34971 6.25749 3.2
    endloop
  endfacet
  facet normal 0 0 1
    outer loop
      vertex 7.8 7.8 3.2
      vertex 4.0507 6.29526 3.2
      vertex 4.2008 6.28107 3.2
    endloop
  endfacet
  facet normal 0 0 1
    outer loop
      vertex 7.8 7.8 3.2
      vertex 3.9 6.3 3.2
      vertex 4.0507 6.29526 3.2
    endloop
  endfacet
  facet normal -0 0 1
    outer loop
      vertex 0 7.8 3.2
      vertex 3.9 6.3 3.2
      vertex 7.8 7.8 3.2
    endloop
  endfacet
  facet normal 0 0 1
    outer loop
      vertex 3.9 6.3 3.2
      vertex 0 7.8 3.2
      vertex 3.7493 6.29526 3.2
    endloop
  endfacet
  facet normal 0 0 1
    outer loop
      vertex 3.7493 6.29526 3.2
      vertex 0 7.8 3.2
      vertex 3.5992 6.28107 3.2
    endloop
  endfacet
  facet normal 0 0 1
    outer loop
      vertex 3.5992 6.28107 3.2
      vertex 0 7.8 3.2
      vertex 3.45028 6.25749 3.2
    endloop
  endfacet
  facet normal 0 0 1
    outer loop
      vertex 3.45028 6.25749 3.2
      vertex 0 7.8 3.2
      vertex 3.30314 6.2246 3.2
    endloop
  endfacet
  facet normal 0 0 1
    outer loop
      vertex 1.50473 4.0507 3.2
      vertex 0 7.8 3.2
      vertex 1.5 3.9 3.2
    endloop
  endfacet
  facet normal 0 0 1
    outer loop
      vertex 1.51892 4.2008 3.2
      vertex 0 7.8 3.2
      vertex 1.50473 4.0507 3.2
    endloop
  endfacet
  facet normal 0 0 1
    outer loop
      vertex 1.54251 4.34971 3.2
      vertex 0 7.8 3.2
      vertex 1.51892 4.2008 3.2
    endloop
  endfacet
  facet normal 0 0 1
    outer loop
      vertex 1.5754 4.49685 3.2
      vertex 0 7.8 3.2
      vertex 1.54251 4.34971 3.2
    endloop
  endfacet
  facet normal 0 0 1
    outer loop
      vertex 1.61746 4.64164 3.2
      vertex 0 7.8 3.2
      vertex 1.5754 4.49685 3.2
    endloop
  endfacet
  facet normal 0 0 1
    outer loop
      vertex 1.66854 4.7835 3.2
      vertex 0 7.8 3.2
      vertex 1.61746 4.64164 3.2
    endloop
  endfacet
  facet normal 0 0 1
    outer loop
      vertex 1.72841 4.92187 3.2
      vertex 0 7.8 3.2
      vertex 1.66854 4.7835 3.2
    endloop
  endfacet
  facet normal 0 0 1
    outer loop
      vertex 1.79686 5.05621 3.2
      vertex 0 7.8 3.2
      vertex 1.72841 4.92187 3.2
    endloop
  endfacet
  facet normal 0 0 1
    outer loop
      vertex 1.87361 5.18598 3.2
      vertex 0 7.8 3.2
      vertex 1.79686 5.05621 3.2
    endloop
  endfacet
  facet normal 0 0 1
    outer loop
      vertex 1.95836 5.31068 3.2
      vertex 0 7.8 3.2
      vertex 1.87361 5.18598 3.2
    endloop
  endfacet
  facet normal 0 0 1
    outer loop
      vertex 2.05077 5.42982 3.2
      vertex 0 7.8 3.2
      vertex 1.95836 5.31068 3.2
    endloop
  endfacet
  facet normal 0 0 1
    outer loop
      vertex 2.15047 5.54291 3.2
      vertex 0 7.8 3.2
      vertex 2.05077 5.42982 3.2
    endloop
  endfacet
  facet normal 0 0 1
    outer loop
      vertex 2.25709 5.64952 3.2
      vertex 0 7.8 3.2
      vertex 2.15047 5.54291 3.2
    endloop
  endfacet
  facet normal 0 0 1
    outer loop
      vertex 2.37018 5.74923 3.2
      vertex 0 7.8 3.2
      vertex 2.25709 5.64952 3.2
    endloop
  endfacet
  facet normal 0 0 1
    outer loop
      vertex 2.48932 5.84164 3.2
      vertex 0 7.8 3.2
      vertex 2.37018 5.74923 3.2
    endloop
  endfacet
  facet normal 0 0 1
    outer loop
      vertex 2.61402 5.92639 3.2
      vertex 0 7.8 3.2
      vertex 2.48932 5.84164 3.2
    endloop
  endfacet
  facet normal 0 0 1
    outer loop
      vertex 2.74379 6.00314 3.2
      vertex 0 7.8 3.2
      vertex 2.61402 5.92639 3.2
    endloop
  endfacet
  facet normal 0 0 1
    outer loop
      vertex 2.87813 6.07158 3.2
      vertex 0 7.8 3.2
      vertex 2.74379 6.00314 3.2
    endloop
  endfacet
  facet normal 0 0 1
    outer loop
      vertex 3.0165 6.13146 3.2
      vertex 0 7.8 3.2
      vertex 2.87813 6.07158 3.2
    endloop
  endfacet
  facet normal 0 0 1
    outer loop
      vertex 3.15836 6.18254 3.2
      vertex 0 7.8 3.2
      vertex 3.0165 6.13146 3.2
    endloop
  endfacet
  facet normal 0 0 1
    outer loop
      vertex 3.30314 6.2246 3.2
      vertex 0 7.8 3.2
      vertex 3.15836 6.18254 3.2
    endloop
  endfacet
  facet normal -0 0 1
    outer loop
      vertex 6.29526 3.7493 3.2
      vertex 7.8 0 3.2
      vertex 6.3 3.9 3.2
    endloop
  endfacet
  facet normal -0 0 1
    outer loop
      vertex 6.28107 3.5992 3.2
      vertex 7.8 0 3.2
      vertex 6.29526 3.7493 3.2
    endloop
  endfacet
  facet normal -0 0 1
    outer loop
      vertex 6.25749 3.45028 3.2
      vertex 7.8 0 3.2
      vertex 6.28107 3.5992 3.2
    endloop
  endfacet
  facet normal -0 0 1
    outer loop
      vertex 6.2246 3.30314 3.2
      vertex 7.8 0 3.2
      vertex 6.25749 3.45028 3.2
    endloop
  endfacet
  facet normal -0 0 1
    outer loop
      vertex 6.18254 3.15836 3.2
      vertex 7.8 0 3.2
      vertex 6.2246 3.30314 3.2
    endloop
  endfacet
  facet normal -0 0 1
    outer loop
      vertex 6.13146 3.0165 3.2
      vertex 7.8 0 3.2
      vertex 6.18254 3.15836 3.2
    endloop
  endfacet
  facet normal -0 0 1
    outer loop
      vertex 6.07158 2.87813 3.2
      vertex 7.8 0 3.2
      vertex 6.13146 3.0165 3.2
    endloop
  endfacet
  facet normal -0 0 1
    outer loop
      vertex 6.00314 2.74379 3.2
      vertex 7.8 0 3.2
      vertex 6.07158 2.87813 3.2
    endloop
  endfacet
  facet normal -0 0 1
    outer loop
      vertex 5.92639 2.61402 3.2
      vertex 7.8 0 3.2
      vertex 6.00314 2.74379 3.2
    endloop
  endfacet
  facet normal -0 0 1
    outer loop
      vertex 5.84164 2.48932 3.2
      vertex 7.8 0 3.2
      vertex 5.92639 2.61402 3.2
    endloop
  endfacet
  facet normal -0 0 1
    outer loop
      vertex 5.74923 2.37018 3.2
      vertex 7.8 0 3.2
      vertex 5.84164 2.48932 3.2
    endloop
  endfacet
  facet normal -0 0 1
    outer loop
      vertex 5.64952 2.25709 3.2
      vertex 7.8 0 3.2
      vertex 5.74923 2.37018 3.2
    endloop
  endfacet
  facet normal -0 0 1
    outer loop
      vertex 5.54291 2.15047 3.2
      vertex 7.8 0 3.2
      vertex 5.64952 2.25709 3.2
    endloop
  endfacet
  facet normal -0 0 1
    outer loop
      vertex 5.42982 2.05077 3.2
      vertex 7.8 0 3.2
      vertex 5.54291 2.15047 3.2
    endloop
  endfacet
  facet normal -0 0 1
    outer loop
      vertex 5.31068 1.95836 3.2
      vertex 7.8 0 3.2
      vertex 5.42982 2.05077 3.2
    endloop
  endfacet
  facet normal -0 0 1
    outer loop
      vertex 5.18598 1.87361 3.2
      vertex 7.8 0 3.2
      vertex 5.31068 1.95836 3.2
    endloop
  endfacet
  facet normal -0 0 1
    outer loop
      vertex 5.05621 1.79686 3.2
      vertex 7.8 0 3.2
      vertex 5.18598 1.87361 3.2
    endloop
  endfacet
  facet normal -0 0 1
    outer loop
      vertex 4.92187 1.72841 3.2
      vertex 7.8 0 3.2
      vertex 5.05621 1.79686 3.2
    endloop
  endfacet
  facet normal -0 0 1
    outer loop
      vertex 4.7835 1.66854 3.2
      vertex 7.8 0 3.2
      vertex 4.92187 1.72841 3.2
    endloop
  endfacet
  facet normal -0 0 1
    outer loop
      vertex 4.64164 1.61746 3.2
      vertex 7.8 0 3.2
      vertex 4.7835 1.66854 3.2
    endloop
  endfacet
  facet normal -0 0 1
    outer loop
      vertex 4.49685 1.5754 3.2
      vertex 7.8 0 3.2
      vertex 4.64164 1.61746 3.2
    endloop
  endfacet
  facet normal -0 0 1
    outer loop
      vertex 4.34971 1.54251 3.2
      vertex 7.8 0 3.2
      vertex 4.49685 1.5754 3.2
    endloop
  endfacet
  facet normal -0 0 1
    outer loop
      vertex 4.2008 1.51892 3.2
      vertex 7.8 0 3.2
      vertex 4.34971 1.54251 3.2
    endloop
  endfacet
  facet normal -0 0 1
    outer loop
      vertex 4.0507 1.50473 3.2
      vertex 7.8 0 3.2
      vertex 4.2008 1.51892 3.2
    endloop
  endfacet
  facet normal -0 0 1
    outer loop
      vertex 3.9 1.5 3.2
      vertex 7.8 0 3.2
      vertex 4.0507 1.50473 3.2
    endloop
  endfacet
  facet normal 0 0 1
    outer loop
      vertex 0 0 3.2
      vertex 3.9 1.5 3.2
      vertex 3.7493 1.50473 3.2
    endloop
  endfacet
  facet normal 0 0 1
    outer loop
      vertex 0 0 3.2
      vertex 3.7493 1.50473 3.2
      vertex 3.5992 1.51892 3.2
    endloop
  endfacet
  facet normal 0 0 1
    outer loop
      vertex 0 0 3.2
      vertex 3.5992 1.51892 3.2
      vertex 3.45028 1.54251 3.2
    endloop
  endfacet
  facet normal 0 0 1
    outer loop
      vertex 0 0 3.2
      vertex 3.45028 1.54251 3.2
      vertex 3.30314 1.5754 3.2
    endloop
  endfacet
  facet normal 0 0 1
    outer loop
      vertex 0 0 3.2
      vertex 3.30314 1.5754 3.2
      vertex 3.15836 1.61746 3.2
    endloop
  endfacet
  facet normal 0 0 1
    outer loop
      vertex 0 0 3.2
      vertex 1.5 3.9 3.2
      vertex 0 7.8 3.2
    endloop
  endfacet
  facet normal 0 0 1
    outer loop
      vertex 1.5 3.9 3.2
      vertex 0 0 3.2
      vertex 1.50473 3.7493 3.2
    endloop
  endfacet
  facet normal 0 0 1
    outer loop
      vertex 1.50473 3.7493 3.2
      vertex 0 0 3.2
      vertex 1.51892 3.5992 3.2
    endloop
  endfacet
  facet normal 0 0 1
    outer loop
      vertex 1.51892 3.5992 3.2
      vertex 0 0 3.2
      vertex 1.54251 3.45028 3.2
    endloop
  endfacet
  facet normal 0 0 1
    outer loop
      vertex 1.54251 3.45028 3.2
      vertex 0 0 3.2
      vertex 1.5754 3.30314 3.2
    endloop
  endfacet
  facet normal 0 0 1
    outer loop
      vertex 3.9 1.5 3.2
      vertex 0 0 3.2
      vertex 7.8 0 3.2
    endloop
  endfacet
  facet normal 0 0 1
    outer loop
      vertex 3.0165 1.66854 3.2
      vertex 0 0 3.2
      vertex 3.15836 1.61746 3.2
    endloop
  endfacet
  facet normal 0 0 1
    outer loop
      vertex 2.87813 1.72841 3.2
      vertex 0 0 3.2
      vertex 3.0165 1.66854 3.2
    endloop
  endfacet
  facet normal 0 0 1
    outer loop
      vertex 2.74379 1.79686 3.2
      vertex 0 0 3.2
      vertex 2.87813 1.72841 3.2
    endloop
  endfacet
  facet normal 0 0 1
    outer loop
      vertex 2.61402 1.87361 3.2
      vertex 0 0 3.2
      vertex 2.74379 1.79686 3.2
    endloop
  endfacet
  facet normal 0 0 1
    outer loop
      vertex 2.48932 1.95836 3.2
      vertex 0 0 3.2
      vertex 2.61402 1.87361 3.2
    endloop
  endfacet
  facet normal 0 0 1
    outer loop
      vertex 2.37018 2.05077 3.2
      vertex 0 0 3.2
      vertex 2.48932 1.95836 3.2
    endloop
  endfacet
  facet normal 0 0 1
    outer loop
      vertex 2.25709 2.15047 3.2
      vertex 0 0 3.2
      vertex 2.37018 2.05077 3.2
    endloop
  endfacet
  facet normal 0 0 1
    outer loop
      vertex 2.15047 2.25709 3.2
      vertex 0 0 3.2
      vertex 2.25709 2.15047 3.2
    endloop
  endfacet
  facet normal 0 0 1
    outer loop
      vertex 2.05077 2.37018 3.2
      vertex 0 0 3.2
      vertex 2.15047 2.25709 3.2
    endloop
  endfacet
  facet normal 0 0 1
    outer loop
      vertex 1.95836 2.48932 3.2
      vertex 0 0 3.2
      vertex 2.05077 2.37018 3.2
    endloop
  endfacet
  facet normal 0 0 1
    outer loop
      vertex 1.87361 2.61402 3.2
      vertex 0 0 3.2
      vertex 1.95836 2.48932 3.2
    endloop
  endfacet
  facet normal 0 0 1
    outer loop
      vertex 1.79686 2.74379 3.2
      vertex 0 0 3.2
      vertex 1.87361 2.61402 3.2
    endloop
  endfacet
  facet normal 0 0 1
    outer loop
      vertex 1.72841 2.87813 3.2
      vertex 0 0 3.2
      vertex 1.79686 2.74379 3.2
    endloop
  endfacet
  facet normal 0 0 1
    outer loop
      vertex 1.66854 3.0165 3.2
      vertex 0 0 3.2
      vertex 1.72841 2.87813 3.2
    endloop
  endfacet
  facet normal 0 0 1
    outer loop
      vertex 1.61746 3.15836 3.2
      vertex 0 0 3.2
      vertex 1.66854 3.0165 3.2
    endloop
  endfacet
  facet normal 0 0 1
    outer loop
      vertex 1.5754 3.30314 3.2
      vertex 0 0 3.2
      vertex 1.61746 3.15836 3.2
    endloop
  endfacet
  facet normal 1 -0 0
    outer loop
      vertex 7.8 0 3.2
      vertex 7.8 7.8 0
      vertex 7.8 7.8 3.2
    endloop
  endfacet
  facet normal 1 0 0
    outer loop
      vertex 7.8 7.8 0
      vertex 7.8 0 3.2
      vertex 7.8 0 0
    endloop
  endfacet
  facet normal 0 1 -0
    outer loop
      vertex 7.8 7.8 0
      vertex 0 7.8 3.2
      vertex 7.8 7.8 3.2
    endloop
  endfacet
  facet normal 0 1 0
    outer loop
      vertex 0 7.8 3.2
      vertex 7.8 7.8 0
      vertex 0 7.8 0
    endloop
  endfacet
  facet normal 0 0 -1
    outer loop
      vertex 7.8 0 0
      vertex 6.3 1.5 0
      vertex 7.8 7.8 0
    endloop
  endfacet
  facet normal 0 0 -1
    outer loop
      vertex 7.8 0 0
      vertex 1.5 1.5 0
      vertex 6.3 1.5 0
    endloop
  endfacet
  facet normal -0 0 -1
    outer loop
      vertex 1.5 1.5 0
      vertex 0 0 0
      vertex 1.5 6.3 0
    endloop
  endfacet
  facet normal 0 0 -1
    outer loop
      vertex 0 0 0
      vertex 1.5 1.5 0
      vertex 7.8 0 0
    endloop
  endfacet
  facet normal 0 0 -1
    outer loop
      vertex 6.3 6.3 0
      vertex 7.8 7.8 0
      vertex 6.3 1.5 0
    endloop
  endfacet
  facet normal 0 0 -1
    outer loop
      vertex 1.5 6.3 0
      vertex 7.8 7.8 0
      vertex 6.3 6.3 0
    endloop
  endfacet
  facet normal 0 0 -1
    outer loop
      vertex 1.5 6.3 0
      vertex 0 7.8 0
      vertex 7.8 7.8 0
    endloop
  endfacet
  facet normal 0 0 -1
    outer loop
      vertex 0 7.8 0
      vertex 1.5 6.3 0
      vertex 0 0 0
    endloop
  endfacet
  facet normal 0 -1 0
    outer loop
      vertex 0 0 0
      vertex 7.8 0 3.2
      vertex 0 0 3.2
    endloop
  endfacet
  facet normal 0 -1 -0
    outer loop
      vertex 7.8 0 3.2
      vertex 0 0 0
      vertex 7.8 0 0
    endloop
  endfacet
  facet normal 1 -0 0
    outer loop
      vertex 1.5 1.5 2.2
      vertex 1.5 6.3 0
      vertex 1.5 6.3 2.2
    endloop
  endfacet
  facet normal 1 0 0
    outer loop
      vertex 1.5 6.3 0
      vertex 1.5 1.5 2.2
      vertex 1.5 1.5 0
    endloop
  endfacet
  facet normal 0 0 -1
    outer loop
      vertex 1.5 1.5 2.2
      vertex 6.3 6.3 2.2
      vertex 6.3 1.5 2.2
    endloop
  endfacet
  facet normal -0 0 -1
    outer loop
      vertex 6.3 6.3 2.2
      vertex 1.5 1.5 2.2
      vertex 1.5 6.3 2.2
    endloop
  endfacet
  facet normal -1 0 0
    outer loop
      vertex 6.3 1.5 0
      vertex 6.3 6.3 2.2
      vertex 6.3 6.3 0
    endloop
  endfacet
  facet normal -1 -0 0
    outer loop
      vertex 6.3 6.3 2.2
      vertex 6.3 1.5 0
      vertex 6.3 1.5 2.2
    endloop
  endfacet
  facet normal 0 1 -0
    outer loop
      vertex 6.3 1.5 0
      vertex 1.5 1.5 2.2
      vertex 6.3 1.5 2.2
    endloop
  endfacet
  facet normal 0 1 0
    outer loop
      vertex 1.5 1.5 2.2
      vertex 6.3 1.5 0
      vertex 1.5 1.5 0
    endloop
  endfacet
  facet normal 0 -1 0
    outer loop
      vertex 1.5 6.3 0
      vertex 6.3 6.3 2.2
      vertex 1.5 6.3 2.2
    endloop
  endfacet
  facet normal 0 -1 -0
    outer loop
      vertex 6.3 6.3 2.2
      vertex 1.5 6.3 0
      vertex 6.3 6.3 0
    endloop
  endfacet
  facet normal 0.661341 0.750086 -0
    outer loop
      vertex 5.54291 5.64952 3.2
      vertex 5.42982 5.74923 4.9
      vertex 5.54291 5.64952 4.9
    endloop
  endfacet
  facet normal 0.661341 0.750086 0
    outer loop
      vertex 5.42982 5.74923 4.9
      vertex 5.54291 5.64952 3.2
      vertex 5.42982 5.74923 3.2
    endloop
  endfacet
  facet normal -0.397159 0.91775 0
    outer loop
      vertex 3.0165 6.13146 3.2
      vertex 2.87813 6.07158 4.9
      vertex 3.0165 6.13146 4.9
    endloop
  endfacet
  facet normal -0.397159 0.91775 0
    outer loop
      vertex 2.87813 6.07158 4.9
      vertex 3.0165 6.13146 3.2
      vertex 2.87813 6.07158 3.2
    endloop
  endfacet
  facet normal -0.940865 0.338781 0
    outer loop
      vertex 1.61746 4.64164 3.2
      vertex 1.66854 4.7835 4.9
      vertex 1.66854 4.7835 3.2
    endloop
  endfacet
  facet normal -0.940865 0.338781 0
    outer loop
      vertex 1.66854 4.7835 4.9
      vertex 1.61746 4.64164 3.2
      vertex 1.61746 4.64164 4.9
    endloop
  endfacet
  facet normal 0.562101 -0.827068 0
    outer loop
      vertex 5.18598 1.87361 3.2
      vertex 5.31068 1.95836 4.9
      vertex 5.18598 1.87361 4.9
    endloop
  endfacet
  facet normal 0.562101 -0.827068 0
    outer loop
      vertex 5.31068 1.95836 4.9
      vertex 5.18598 1.87361 3.2
      vertex 5.31068 1.95836 3.2
    endloop
  endfacet
  facet normal 0.891032 0.45394 0
    outer loop
      vertex 6.07158 4.92187 4.9
      vertex 6.00314 5.05621 3.2
      vertex 6.00314 5.05621 4.9
    endloop
  endfacet
  facet normal 0.891032 0.45394 0
    outer loop
      vertex 6.00314 5.05621 3.2
      vertex 6.07158 4.92187 4.9
      vertex 6.07158 4.92187 3.2
    endloop
  endfacet
  facet normal 0.338781 0.940865 -0
    outer loop
      vertex 4.7835 6.13146 3.2
      vertex 4.64164 6.18254 4.9
      vertex 4.7835 6.13146 4.9
    endloop
  endfacet
  facet normal 0.338781 0.940865 0
    outer loop
      vertex 4.64164 6.18254 4.9
      vertex 4.7835 6.13146 3.2
      vertex 4.64164 6.18254 3.2
    endloop
  endfacet
  facet normal -0.995561 0.0941173 0
    outer loop
      vertex 1.50473 4.0507 3.2
      vertex 1.51892 4.2008 4.9
      vertex 1.51892 4.2008 3.2
    endloop
  endfacet
  facet normal -0.995561 0.0941173 0
    outer loop
      vertex 1.51892 4.2008 4.9
      vertex 1.50473 4.0507 3.2
      vertex 1.50473 4.0507 4.9
    endloop
  endfacet
  facet normal -0.750118 0.661303 0
    outer loop
      vertex 2.05077 5.42982 3.2
      vertex 2.15047 5.54291 4.9
      vertex 2.15047 5.54291 3.2
    endloop
  endfacet
  facet normal -0.750118 0.661303 0
    outer loop
      vertex 2.15047 5.54291 4.9
      vertex 2.05077 5.42982 3.2
      vertex 2.05077 5.42982 4.9
    endloop
  endfacet
  facet normal -0.218145 0.975916 0
    outer loop
      vertex 3.45028 6.25749 3.2
      vertex 3.30314 6.2246 4.9
      vertex 3.45028 6.25749 4.9
    endloop
  endfacet
  facet normal -0.218145 0.975916 0
    outer loop
      vertex 3.30314 6.2246 4.9
      vertex 3.45028 6.25749 3.2
      vertex 3.30314 6.2246 3.2
    endloop
  endfacet
  facet normal 0.940865 -0.338781 0
    outer loop
      vertex 6.13146 3.0165 4.9
      vertex 6.18254 3.15836 3.2
      vertex 6.18254 3.15836 4.9
    endloop
  endfacet
  facet normal 0.940865 -0.338781 0
    outer loop
      vertex 6.18254 3.15836 3.2
      vertex 6.13146 3.0165 4.9
      vertex 6.13146 3.0165 3.2
    endloop
  endfacet
  facet normal 0.397103 -0.917774 0
    outer loop
      vertex 4.7835 1.66854 3.2
      vertex 4.92187 1.72841 4.9
      vertex 4.7835 1.66854 4.9
    endloop
  endfacet
  facet normal 0.397103 -0.917774 0
    outer loop
      vertex 4.92187 1.72841 4.9
      vertex 4.7835 1.66854 3.2
      vertex 4.92187 1.72841 3.2
    endloop
  endfacet
  facet normal -0.0941173 -0.995561 0
    outer loop
      vertex 3.5992 1.51892 3.2
      vertex 3.7493 1.50473 4.9
      vertex 3.5992 1.51892 4.9
    endloop
  endfacet
  facet normal -0.0941173 -0.995561 -0
    outer loop
      vertex 3.7493 1.50473 4.9
      vertex 3.5992 1.51892 3.2
      vertex 3.7493 1.50473 3.2
    endloop
  endfacet
  facet normal -0.661303 -0.750118 0
    outer loop
      vertex 2.25709 2.15047 3.2
      vertex 2.37018 2.05077 4.9
      vertex 2.25709 2.15047 4.9
    endloop
  endfacet
  facet normal -0.661303 -0.750118 -0
    outer loop
      vertex 2.37018 2.05077 4.9
      vertex 2.25709 2.15047 3.2
      vertex 2.37018 2.05077 3.2
    endloop
  endfacet
  facet normal 0.975916 0.218145 0
    outer loop
      vertex 6.25749 4.34971 4.9
      vertex 6.2246 4.49685 3.2
      vertex 6.2246 4.49685 4.9
    endloop
  endfacet
  facet normal 0.975916 0.218145 0
    outer loop
      vertex 6.2246 4.49685 3.2
      vertex 6.25749 4.34971 4.9
      vertex 6.25749 4.34971 3.2
    endloop
  endfacet
  facet normal 0.960303 0.278958 0
    outer loop
      vertex 6.2246 4.49685 4.9
      vertex 6.18254 4.64164 3.2
      vertex 6.18254 4.64164 4.9
    endloop
  endfacet
  facet normal 0.960303 0.278958 0
    outer loop
      vertex 6.18254 4.64164 3.2
      vertex 6.2246 4.49685 4.9
      vertex 6.2246 4.49685 3.2
    endloop
  endfacet
  facet normal 0.827068 0.562101 0
    outer loop
      vertex 5.92639 5.18598 4.9
      vertex 5.84164 5.31068 3.2
      vertex 5.84164 5.31068 4.9
    endloop
  endfacet
  facet normal 0.827068 0.562101 0
    outer loop
      vertex 5.84164 5.31068 3.2
      vertex 5.92639 5.18598 4.9
      vertex 5.92639 5.18598 3.2
    endloop
  endfacet
  facet normal 0.707107 0.707107 0
    outer loop
      vertex 5.64952 5.54291 4.9
      vertex 5.54291 5.64952 3.2
      vertex 5.54291 5.64952 4.9
    endloop
  endfacet
  facet normal 0.707107 0.707107 0
    outer loop
      vertex 5.54291 5.64952 3.2
      vertex 5.64952 5.54291 4.9
      vertex 5.64952 5.54291 3.2
    endloop
  endfacet
  facet normal 0.509062 0.86073 -0
    outer loop
      vertex 5.18598 5.92639 3.2
      vertex 5.05621 6.00314 4.9
      vertex 5.18598 5.92639 4.9
    endloop
  endfacet
  facet normal 0.509062 0.86073 0
    outer loop
      vertex 5.05621 6.00314 4.9
      vertex 5.18598 5.92639 3.2
      vertex 5.05621 6.00314 3.2
    endloop
  endfacet
  facet normal -0.0314377 0.999506 0
    outer loop
      vertex 3.9 6.3 3.2
      vertex 3.7493 6.29526 4.9
      vertex 3.9 6.3 4.9
    endloop
  endfacet
  facet normal -0.0314377 0.999506 0
    outer loop
      vertex 3.7493 6.29526 4.9
      vertex 3.9 6.3 3.2
      vertex 3.7493 6.29526 3.2
    endloop
  endfacet
  facet normal 0.45394 0.891032 -0
    outer loop
      vertex 5.05621 6.00314 3.2
      vertex 4.92187 6.07158 4.9
      vertex 5.05621 6.00314 4.9
    endloop
  endfacet
  facet normal 0.45394 0.891032 0
    outer loop
      vertex 4.92187 6.07158 4.9
      vertex 5.05621 6.00314 3.2
      vertex 4.92187 6.07158 3.2
    endloop
  endfacet
  facet normal 0.156402 0.987693 -0
    outer loop
      vertex 4.34971 6.25749 3.2
      vertex 4.2008 6.28107 4.9
      vertex 4.34971 6.25749 4.9
    endloop
  endfacet
  facet normal 0.156402 0.987693 0
    outer loop
      vertex 4.2008 6.28107 4.9
      vertex 4.34971 6.25749 3.2
      vertex 4.2008 6.28107 3.2
    endloop
  endfacet
  facet normal -0.987683 0.156467 0
    outer loop
      vertex 1.51892 4.2008 3.2
      vertex 1.54251 4.34971 4.9
      vertex 1.54251 4.34971 3.2
    endloop
  endfacet
  facet normal -0.987683 0.156467 0
    outer loop
      vertex 1.54251 4.34971 4.9
      vertex 1.51892 4.2008 3.2
      vertex 1.51892 4.2008 4.9
    endloop
  endfacet
  facet normal -0.891006 0.453992 0
    outer loop
      vertex 1.72841 4.92187 3.2
      vertex 1.79686 5.05621 4.9
      vertex 1.79686 5.05621 3.2
    endloop
  endfacet
  facet normal -0.891006 0.453992 0
    outer loop
      vertex 1.79686 5.05621 4.9
      vertex 1.72841 4.92187 3.2
      vertex 1.72841 4.92187 4.9
    endloop
  endfacet
  facet normal -0.86073 0.509062 0
    outer loop
      vertex 1.79686 5.05621 3.2
      vertex 1.87361 5.18598 4.9
      vertex 1.87361 5.18598 3.2
    endloop
  endfacet
  facet normal -0.86073 0.509062 0
    outer loop
      vertex 1.87361 5.18598 4.9
      vertex 1.79686 5.05621 3.2
      vertex 1.79686 5.05621 4.9
    endloop
  endfacet
  facet normal -0.156392 0.987695 0
    outer loop
      vertex 3.5992 6.28107 3.2
      vertex 3.45028 6.25749 4.9
      vertex 3.5992 6.28107 4.9
    endloop
  endfacet
  facet normal -0.156392 0.987695 0
    outer loop
      vertex 3.45028 6.25749 4.9
      vertex 3.5992 6.28107 3.2
      vertex 3.45028 6.25749 3.2
    endloop
  endfacet
  facet normal -0.278976 0.960298 0
    outer loop
      vertex 3.30314 6.2246 3.2
      vertex 3.15836 6.18254 4.9
      vertex 3.30314 6.2246 4.9
    endloop
  endfacet
  facet normal -0.278976 0.960298 0
    outer loop
      vertex 3.15836 6.18254 4.9
      vertex 3.30314 6.2246 3.2
      vertex 3.15836 6.18254 3.2
    endloop
  endfacet
  facet normal -0.562101 0.827068 0
    outer loop
      vertex 2.61402 5.92639 3.2
      vertex 2.48932 5.84164 4.9
      vertex 2.61402 5.92639 4.9
    endloop
  endfacet
  facet normal -0.562101 0.827068 0
    outer loop
      vertex 2.48932 5.84164 4.9
      vertex 2.61402 5.92639 3.2
      vertex 2.48932 5.84164 3.2
    endloop
  endfacet
  facet normal -0.45394 0.891032 0
    outer loop
      vertex 2.87813 6.07158 3.2
      vertex 2.74379 6.00314 4.9
      vertex 2.87813 6.07158 4.9
    endloop
  endfacet
  facet normal -0.45394 0.891032 0
    outer loop
      vertex 2.74379 6.00314 4.9
      vertex 2.87813 6.07158 3.2
      vertex 2.74379 6.00314 3.2
    endloop
  endfacet
  facet normal -0.707074 0.70714 0
    outer loop
      vertex 2.15047 5.54291 3.2
      vertex 2.25709 5.64952 4.9
      vertex 2.25709 5.64952 3.2
    endloop
  endfacet
  facet normal -0.707074 0.70714 0
    outer loop
      vertex 2.25709 5.64952 4.9
      vertex 2.15047 5.54291 3.2
      vertex 2.15047 5.54291 4.9
    endloop
  endfacet
  facet normal 0.999506 0.0314377 0
    outer loop
      vertex 6.3 3.9 4.9
      vertex 6.29526 4.0507 3.2
      vertex 6.29526 4.0507 4.9
    endloop
  endfacet
  facet normal 0.999506 0.0314377 0
    outer loop
      vertex 6.29526 4.0507 3.2
      vertex 6.3 3.9 4.9
      vertex 6.3 3.9 3.2
    endloop
  endfacet
  facet normal 0.975916 -0.218145 0
    outer loop
      vertex 6.2246 3.30314 4.9
      vertex 6.25749 3.45028 3.2
      vertex 6.25749 3.45028 4.9
    endloop
  endfacet
  facet normal 0.975916 -0.218145 0
    outer loop
      vertex 6.25749 3.45028 3.2
      vertex 6.2246 3.30314 4.9
      vertex 6.2246 3.30314 3.2
    endloop
  endfacet
  facet normal 0.278958 -0.960303 0
    outer loop
      vertex 4.49685 1.5754 3.2
      vertex 4.64164 1.61746 4.9
      vertex 4.49685 1.5754 4.9
    endloop
  endfacet
  facet normal 0.278958 -0.960303 0
    outer loop
      vertex 4.64164 1.61746 4.9
      vertex 4.49685 1.5754 3.2
      vertex 4.64164 1.61746 3.2
    endloop
  endfacet
  facet normal 0.453992 -0.891006 0
    outer loop
      vertex 4.92187 1.72841 3.2
      vertex 5.05621 1.79686 4.9
      vertex 4.92187 1.72841 4.9
    endloop
  endfacet
  facet normal 0.453992 -0.891006 0
    outer loop
      vertex 5.05621 1.79686 4.9
      vertex 4.92187 1.72841 3.2
      vertex 5.05621 1.79686 3.2
    endloop
  endfacet
  facet normal -0.453992 -0.891006 0
    outer loop
      vertex 2.74379 1.79686 3.2
      vertex 2.87813 1.72841 4.9
      vertex 2.74379 1.79686 4.9
    endloop
  endfacet
  facet normal -0.453992 -0.891006 -0
    outer loop
      vertex 2.87813 1.72841 4.9
      vertex 2.74379 1.79686 3.2
      vertex 2.87813 1.72841 3.2
    endloop
  endfacet
  facet normal -0.509062 -0.86073 0
    outer loop
      vertex 2.61402 1.87361 3.2
      vertex 2.74379 1.79686 4.9
      vertex 2.61402 1.87361 4.9
    endloop
  endfacet
  facet normal -0.509062 -0.86073 -0
    outer loop
      vertex 2.74379 1.79686 4.9
      vertex 2.61402 1.87361 3.2
      vertex 2.74379 1.79686 3.2
    endloop
  endfacet
  facet normal -0.960298 -0.278976 0
    outer loop
      vertex 1.61746 3.15836 3.2
      vertex 1.5754 3.30314 4.9
      vertex 1.5754 3.30314 3.2
    endloop
  endfacet
  facet normal -0.960298 -0.278976 0
    outer loop
      vertex 1.5754 3.30314 4.9
      vertex 1.61746 3.15836 3.2
      vertex 1.61746 3.15836 4.9
    endloop
  endfacet
  facet normal -0.891006 -0.453992 0
    outer loop
      vertex 1.79686 2.74379 3.2
      vertex 1.72841 2.87813 4.9
      vertex 1.72841 2.87813 3.2
    endloop
  endfacet
  facet normal -0.891006 -0.453992 0
    outer loop
      vertex 1.72841 2.87813 4.9
      vertex 1.79686 2.74379 3.2
      vertex 1.79686 2.74379 4.9
    endloop
  endfacet
  facet normal 0.987693 0.156402 0
    outer loop
      vertex 6.28107 4.2008 4.9
      vertex 6.25749 4.34971 3.2
      vertex 6.25749 4.34971 4.9
    endloop
  endfacet
  facet normal 0.987693 0.156402 0
    outer loop
      vertex 6.25749 4.34971 3.2
      vertex 6.28107 4.2008 4.9
      vertex 6.28107 4.2008 3.2
    endloop
  endfacet
  facet normal 0.995561 0.0941173 0
    outer loop
      vertex 6.29526 4.0507 4.9
      vertex 6.28107 4.2008 3.2
      vertex 6.28107 4.2008 4.9
    endloop
  endfacet
  facet normal 0.995561 0.0941173 0
    outer loop
      vertex 6.28107 4.2008 3.2
      vertex 6.29526 4.0507 4.9
      vertex 6.29526 4.0507 3.2
    endloop
  endfacet
  facet normal 0.91775 0.397159 0
    outer loop
      vertex 6.13146 4.7835 4.9
      vertex 6.07158 4.92187 3.2
      vertex 6.07158 4.92187 4.9
    endloop
  endfacet
  facet normal 0.91775 0.397159 0
    outer loop
      vertex 6.07158 4.92187 3.2
      vertex 6.13146 4.7835 4.9
      vertex 6.13146 4.7835 3.2
    endloop
  endfacet
  facet normal 0.940865 0.338781 0
    outer loop
      vertex 6.18254 4.64164 4.9
      vertex 6.13146 4.7835 3.2
      vertex 6.13146 4.7835 4.9
    endloop
  endfacet
  facet normal 0.940865 0.338781 0
    outer loop
      vertex 6.13146 4.7835 3.2
      vertex 6.18254 4.64164 4.9
      vertex 6.18254 4.64164 3.2
    endloop
  endfacet
  facet normal 0.86073 0.509062 0
    outer loop
      vertex 6.00314 5.05621 4.9
      vertex 5.92639 5.18598 3.2
      vertex 5.92639 5.18598 4.9
    endloop
  endfacet
  facet normal 0.86073 0.509062 0
    outer loop
      vertex 5.92639 5.18598 3.2
      vertex 6.00314 5.05621 4.9
      vertex 6.00314 5.05621 3.2
    endloop
  endfacet
  facet normal 0.750086 0.661341 0
    outer loop
      vertex 5.74923 5.42982 4.9
      vertex 5.64952 5.54291 3.2
      vertex 5.64952 5.54291 4.9
    endloop
  endfacet
  facet normal 0.750086 0.661341 0
    outer loop
      vertex 5.64952 5.54291 3.2
      vertex 5.74923 5.42982 4.9
      vertex 5.74923 5.42982 3.2
    endloop
  endfacet
  facet normal 0.790169 0.612889 0
    outer loop
      vertex 5.84164 5.31068 4.9
      vertex 5.74923 5.42982 3.2
      vertex 5.74923 5.42982 4.9
    endloop
  endfacet
  facet normal 0.790169 0.612889 0
    outer loop
      vertex 5.74923 5.42982 3.2
      vertex 5.84164 5.31068 4.9
      vertex 5.84164 5.31068 3.2
    endloop
  endfacet
  facet normal 0.612889 0.790169 -0
    outer loop
      vertex 5.42982 5.74923 3.2
      vertex 5.31068 5.84164 4.9
      vertex 5.42982 5.74923 4.9
    endloop
  endfacet
  facet normal 0.612889 0.790169 0
    outer loop
      vertex 5.31068 5.84164 4.9
      vertex 5.42982 5.74923 3.2
      vertex 5.31068 5.84164 3.2
    endloop
  endfacet
  facet normal 0.562101 0.827068 -0
    outer loop
      vertex 5.31068 5.84164 3.2
      vertex 5.18598 5.92639 4.9
      vertex 5.31068 5.84164 4.9
    endloop
  endfacet
  facet normal 0.562101 0.827068 0
    outer loop
      vertex 5.18598 5.92639 4.9
      vertex 5.31068 5.84164 3.2
      vertex 5.18598 5.92639 3.2
    endloop
  endfacet
  facet normal 0.397159 0.91775 -0
    outer loop
      vertex 4.92187 6.07158 3.2
      vertex 4.7835 6.13146 4.9
      vertex 4.92187 6.07158 4.9
    endloop
  endfacet
  facet normal 0.397159 0.91775 0
    outer loop
      vertex 4.7835 6.13146 4.9
      vertex 4.92187 6.07158 3.2
      vertex 4.7835 6.13146 3.2
    endloop
  endfacet
  facet normal 0.218145 0.975916 -0
    outer loop
      vertex 4.49685 6.2246 3.2
      vertex 4.34971 6.25749 4.9
      vertex 4.49685 6.2246 4.9
    endloop
  endfacet
  facet normal 0.218145 0.975916 0
    outer loop
      vertex 4.34971 6.25749 4.9
      vertex 4.49685 6.2246 3.2
      vertex 4.34971 6.25749 3.2
    endloop
  endfacet
  facet normal 0.278958 0.960303 -0
    outer loop
      vertex 4.64164 6.18254 3.2
      vertex 4.49685 6.2246 4.9
      vertex 4.64164 6.18254 4.9
    endloop
  endfacet
  facet normal 0.278958 0.960303 0
    outer loop
      vertex 4.49685 6.2246 4.9
      vertex 4.64164 6.18254 3.2
      vertex 4.49685 6.2246 3.2
    endloop
  endfacet
  facet normal 0.0941173 0.995561 -0
    outer loop
      vertex 4.2008 6.28107 3.2
      vertex 4.0507 6.29526 4.9
      vertex 4.2008 6.28107 4.9
    endloop
  endfacet
  facet normal 0.0941173 0.995561 0
    outer loop
      vertex 4.0507 6.29526 4.9
      vertex 4.2008 6.28107 3.2
      vertex 4.0507 6.29526 3.2
    endloop
  endfacet
  facet normal 0.0314377 0.999506 -0
    outer loop
      vertex 4.0507 6.29526 3.2
      vertex 3.9 6.3 4.9
      vertex 4.0507 6.29526 4.9
    endloop
  endfacet
  facet normal 0.0314377 0.999506 0
    outer loop
      vertex 3.9 6.3 4.9
      vertex 4.0507 6.29526 3.2
      vertex 3.9 6.3 3.2
    endloop
  endfacet
  facet normal -0.975916 0.218145 0
    outer loop
      vertex 1.54251 4.34971 3.2
      vertex 1.5754 4.49685 4.9
      vertex 1.5754 4.49685 3.2
    endloop
  endfacet
  facet normal -0.975916 0.218145 0
    outer loop
      vertex 1.5754 4.49685 4.9
      vertex 1.54251 4.34971 3.2
      vertex 1.54251 4.34971 4.9
    endloop
  endfacet
  facet normal -0.960303 0.278958 0
    outer loop
      vertex 1.5754 4.49685 3.2
      vertex 1.61746 4.64164 4.9
      vertex 1.61746 4.64164 3.2
    endloop
  endfacet
  facet normal -0.960303 0.278958 0
    outer loop
      vertex 1.61746 4.64164 4.9
      vertex 1.5754 4.49685 3.2
      vertex 1.5754 4.49685 4.9
    endloop
  endfacet
  facet normal -0.999508 0.0313714 0
    outer loop
      vertex 1.5 3.9 3.2
      vertex 1.50473 4.0507 4.9
      vertex 1.50473 4.0507 3.2
    endloop
  endfacet
  facet normal -0.999508 0.0313714 0
    outer loop
      vertex 1.50473 4.0507 4.9
      vertex 1.5 3.9 3.2
      vertex 1.5 3.9 4.9
    endloop
  endfacet
  facet normal 0 0 1
    outer loop
      vertex 6.29526 4.0507 4.9
      vertex 6.29526 3.7493 4.9
      vertex 6.3 3.9 4.9
    endloop
  endfacet
  facet normal 0 0 1
    outer loop
      vertex 6.28107 4.2008 4.9
      vertex 6.29526 3.7493 4.9
      vertex 6.29526 4.0507 4.9
    endloop
  endfacet
  facet normal 0 0 1
    outer loop
      vertex 6.28107 4.2008 4.9
      vertex 6.28107 3.5992 4.9
      vertex 6.29526 3.7493 4.9
    endloop
  endfacet
  facet normal 0 0 1
    outer loop
      vertex 6.25749 4.34971 4.9
      vertex 6.28107 3.5992 4.9
      vertex 6.28107 4.2008 4.9
    endloop
  endfacet
  facet normal 0 0 1
    outer loop
      vertex 6.25749 4.34971 4.9
      vertex 6.25749 3.45028 4.9
      vertex 6.28107 3.5992 4.9
    endloop
  endfacet
  facet normal 0 0 1
    outer loop
      vertex 6.2246 4.49685 4.9
      vertex 6.25749 3.45028 4.9
      vertex 6.25749 4.34971 4.9
    endloop
  endfacet
  facet normal 0 0 1
    outer loop
      vertex 6.2246 4.49685 4.9
      vertex 6.2246 3.30314 4.9
      vertex 6.25749 3.45028 4.9
    endloop
  endfacet
  facet normal 0 0 1
    outer loop
      vertex 6.18254 4.64164 4.9
      vertex 6.2246 3.30314 4.9
      vertex 6.2246 4.49685 4.9
    endloop
  endfacet
  facet normal 0 0 1
    outer loop
      vertex 6.18254 4.64164 4.9
      vertex 6.18254 3.15836 4.9
      vertex 6.2246 3.30314 4.9
    endloop
  endfacet
  facet normal 0 0 1
    outer loop
      vertex 6.13146 4.7835 4.9
      vertex 6.18254 3.15836 4.9
      vertex 6.18254 4.64164 4.9
    endloop
  endfacet
  facet normal 0 0 1
    outer loop
      vertex 6.13146 4.7835 4.9
      vertex 6.13146 3.0165 4.9
      vertex 6.18254 3.15836 4.9
    endloop
  endfacet
  facet normal 0 0 1
    outer loop
      vertex 6.07158 4.92187 4.9
      vertex 6.13146 3.0165 4.9
      vertex 6.13146 4.7835 4.9
    endloop
  endfacet
  facet normal 0 0 1
    outer loop
      vertex 6.07158 4.92187 4.9
      vertex 6.07158 2.87813 4.9
      vertex 6.13146 3.0165 4.9
    endloop
  endfacet
  facet normal 0 0 1
    outer loop
      vertex 6.00314 5.05621 4.9
      vertex 6.07158 2.87813 4.9
      vertex 6.07158 4.92187 4.9
    endloop
  endfacet
  facet normal 0 0 1
    outer loop
      vertex 6.00314 5.05621 4.9
      vertex 6.00314 2.74379 4.9
      vertex 6.07158 2.87813 4.9
    endloop
  endfacet
  facet normal 0 0 1
    outer loop
      vertex 5.92639 5.18598 4.9
      vertex 6.00314 2.74379 4.9
      vertex 6.00314 5.05621 4.9
    endloop
  endfacet
  facet normal 0 0 1
    outer loop
      vertex 5.92639 5.18598 4.9
      vertex 5.92639 2.61402 4.9
      vertex 6.00314 2.74379 4.9
    endloop
  endfacet
  facet normal 0 0 1
    outer loop
      vertex 5.84164 5.31068 4.9
      vertex 5.92639 2.61402 4.9
      vertex 5.92639 5.18598 4.9
    endloop
  endfacet
  facet normal 0 0 1
    outer loop
      vertex 5.84164 5.31068 4.9
      vertex 5.84164 2.48932 4.9
      vertex 5.92639 2.61402 4.9
    endloop
  endfacet
  facet normal 0 0 1
    outer loop
      vertex 5.74923 5.42982 4.9
      vertex 5.84164 2.48932 4.9
      vertex 5.84164 5.31068 4.9
    endloop
  endfacet
  facet normal 0 0 1
    outer loop
      vertex 5.74923 5.42982 4.9
      vertex 5.74923 2.37018 4.9
      vertex 5.84164 2.48932 4.9
    endloop
  endfacet
  facet normal 0 0 1
    outer loop
      vertex 5.64952 5.54291 4.9
      vertex 5.74923 2.37018 4.9
      vertex 5.74923 5.42982 4.9
    endloop
  endfacet
  facet normal 0 0 1
    outer loop
      vertex 5.64952 5.54291 4.9
      vertex 5.64952 2.25709 4.9
      vertex 5.74923 2.37018 4.9
    endloop
  endfacet
  facet normal 0 0 1
    outer loop
      vertex 5.54291 5.64952 4.9
      vertex 5.64952 2.25709 4.9
      vertex 5.64952 5.54291 4.9
    endloop
  endfacet
  facet normal 0 0 1
    outer loop
      vertex 5.54291 5.64952 4.9
      vertex 5.54291 2.15047 4.9
      vertex 5.64952 2.25709 4.9
    endloop
  endfacet
  facet normal 0 0 1
    outer loop
      vertex 5.42982 5.74923 4.9
      vertex 5.54291 2.15047 4.9
      vertex 5.54291 5.64952 4.9
    endloop
  endfacet
  facet normal 0 0 1
    outer loop
      vertex 5.42982 5.74923 4.9
      vertex 5.42982 2.05077 4.9
      vertex 5.54291 2.15047 4.9
    endloop
  endfacet
  facet normal 0 0 1
    outer loop
      vertex 5.31068 5.84164 4.9
      vertex 5.42982 2.05077 4.9
      vertex 5.42982 5.74923 4.9
    endloop
  endfacet
  facet normal 0 0 1
    outer loop
      vertex 5.31068 5.84164 4.9
      vertex 5.31068 1.95836 4.9
      vertex 5.42982 2.05077 4.9
    endloop
  endfacet
  facet normal 0 0 1
    outer loop
      vertex 5.18598 5.92639 4.9
      vertex 5.31068 1.95836 4.9
      vertex 5.31068 5.84164 4.9
    endloop
  endfacet
  facet normal 0 0 1
    outer loop
      vertex 5.18598 5.92639 4.9
      vertex 5.18598 1.87361 4.9
      vertex 5.31068 1.95836 4.9
    endloop
  endfacet
  facet normal 0 0 1
    outer loop
      vertex 5.05621 6.00314 4.9
      vertex 5.18598 1.87361 4.9
      vertex 5.18598 5.92639 4.9
    endloop
  endfacet
  facet normal 0 0 1
    outer loop
      vertex 5.05621 6.00314 4.9
      vertex 5.05621 1.79686 4.9
      vertex 5.18598 1.87361 4.9
    endloop
  endfacet
  facet normal 0 0 1
    outer loop
      vertex 4.92187 6.07158 4.9
      vertex 5.05621 1.79686 4.9
      vertex 5.05621 6.00314 4.9
    endloop
  endfacet
  facet normal 0 0 1
    outer loop
      vertex 4.92187 6.07158 4.9
      vertex 4.92187 1.72841 4.9
      vertex 5.05621 1.79686 4.9
    endloop
  endfacet
  facet normal 0 0 1
    outer loop
      vertex 4.7835 6.13146 4.9
      vertex 4.92187 1.72841 4.9
      vertex 4.92187 6.07158 4.9
    endloop
  endfacet
  facet normal 0 0 1
    outer loop
      vertex 4.7835 6.13146 4.9
      vertex 4.7835 1.66854 4.9
      vertex 4.92187 1.72841 4.9
    endloop
  endfacet
  facet normal 0 0 1
    outer loop
      vertex 4.64164 6.18254 4.9
      vertex 4.7835 1.66854 4.9
      vertex 4.7835 6.13146 4.9
    endloop
  endfacet
  facet normal 0 0 1
    outer loop
      vertex 4.64164 6.18254 4.9
      vertex 4.64164 1.61746 4.9
      vertex 4.7835 1.66854 4.9
    endloop
  endfacet
  facet normal 0 0 1
    outer loop
      vertex 4.49685 6.2246 4.9
      vertex 4.64164 1.61746 4.9
      vertex 4.64164 6.18254 4.9
    endloop
  endfacet
  facet normal 0 0 1
    outer loop
      vertex 4.49685 6.2246 4.9
      vertex 4.49685 1.5754 4.9
      vertex 4.64164 1.61746 4.9
    endloop
  endfacet
  facet normal 0 0 1
    outer loop
      vertex 4.34971 6.25749 4.9
      vertex 4.49685 1.5754 4.9
      vertex 4.49685 6.2246 4.9
    endloop
  endfacet
  facet normal 0 0 1
    outer loop
      vertex 4.34971 6.25749 4.9
      vertex 4.34971 1.54251 4.9
      vertex 4.49685 1.5754 4.9
    endloop
  endfacet
  facet normal 0 0 1
    outer loop
      vertex 4.2008 6.28107 4.9
      vertex 4.34971 1.54251 4.9
      vertex 4.34971 6.25749 4.9
    endloop
  endfacet
  facet normal 0 0 1
    outer loop
      vertex 4.2008 6.28107 4.9
      vertex 4.2008 1.51892 4.9
      vertex 4.34971 1.54251 4.9
    endloop
  endfacet
  facet normal 0 0 1
    outer loop
      vertex 4.0507 6.29526 4.9
      vertex 4.2008 1.51892 4.9
      vertex 4.2008 6.28107 4.9
    endloop
  endfacet
  facet normal 0 0 1
    outer loop
      vertex 4.0507 6.29526 4.9
      vertex 4.0507 1.50473 4.9
      vertex 4.2008 1.51892 4.9
    endloop
  endfacet
  facet normal 0 0 1
    outer loop
      vertex 3.9 6.3 4.9
      vertex 4.0507 1.50473 4.9
      vertex 4.0507 6.29526 4.9
    endloop
  endfacet
  facet normal 0 0 1
    outer loop
      vertex 3.9 6.3 4.9
      vertex 3.9 1.5 4.9
      vertex 4.0507 1.50473 4.9
    endloop
  endfacet
  facet normal -0 0 1
    outer loop
      vertex 3.7493 6.29526 4.9
      vertex 3.9 1.5 4.9
      vertex 3.9 6.3 4.9
    endloop
  endfacet
  facet normal 0 0 1
    outer loop
      vertex 3.7493 6.29526 4.9
      vertex 3.7493 1.50473 4.9
      vertex 3.9 1.5 4.9
    endloop
  endfacet
  facet normal -0 0 1
    outer loop
      vertex 3.5992 6.28107 4.9
      vertex 3.7493 1.50473 4.9
      vertex 3.7493 6.29526 4.9
    endloop
  endfacet
  facet normal 0 0 1
    outer loop
      vertex 3.5992 6.28107 4.9
      vertex 3.5992 1.51892 4.9
      vertex 3.7493 1.50473 4.9
    endloop
  endfacet
  facet normal -0 0 1
    outer loop
      vertex 3.45028 6.25749 4.9
      vertex 3.5992 1.51892 4.9
      vertex 3.5992 6.28107 4.9
    endloop
  endfacet
  facet normal 0 0 1
    outer loop
      vertex 3.45028 6.25749 4.9
      vertex 3.45028 1.54251 4.9
      vertex 3.5992 1.51892 4.9
    endloop
  endfacet
  facet normal -0 0 1
    outer loop
      vertex 3.30314 6.2246 4.9
      vertex 3.45028 1.54251 4.9
      vertex 3.45028 6.25749 4.9
    endloop
  endfacet
  facet normal 0 0 1
    outer loop
      vertex 3.30314 6.2246 4.9
      vertex 3.30314 1.5754 4.9
      vertex 3.45028 1.54251 4.9
    endloop
  endfacet
  facet normal -0 0 1
    outer loop
      vertex 3.15836 6.18254 4.9
      vertex 3.30314 1.5754 4.9
      vertex 3.30314 6.2246 4.9
    endloop
  endfacet
  facet normal 0 0 1
    outer loop
      vertex 3.15836 6.18254 4.9
      vertex 3.15836 1.61746 4.9
      vertex 3.30314 1.5754 4.9
    endloop
  endfacet
  facet normal -0 0 1
    outer loop
      vertex 3.0165 6.13146 4.9
      vertex 3.15836 1.61746 4.9
      vertex 3.15836 6.18254 4.9
    endloop
  endfacet
  facet normal 0 0 1
    outer loop
      vertex 3.0165 6.13146 4.9
      vertex 3.0165 1.66854 4.9
      vertex 3.15836 1.61746 4.9
    endloop
  endfacet
  facet normal -0 0 1
    outer loop
      vertex 2.87813 6.07158 4.9
      vertex 3.0165 1.66854 4.9
      vertex 3.0165 6.13146 4.9
    endloop
  endfacet
  facet normal 0 0 1
    outer loop
      vertex 2.87813 6.07158 4.9
      vertex 2.87813 1.72841 4.9
      vertex 3.0165 1.66854 4.9
    endloop
  endfacet
  facet normal -0 0 1
    outer loop
      vertex 2.74379 6.00314 4.9
      vertex 2.87813 1.72841 4.9
      vertex 2.87813 6.07158 4.9
    endloop
  endfacet
  facet normal 0 0 1
    outer loop
      vertex 2.74379 6.00314 4.9
      vertex 2.74379 1.79686 4.9
      vertex 2.87813 1.72841 4.9
    endloop
  endfacet
  facet normal -0 0 1
    outer loop
      vertex 2.61402 5.92639 4.9
      vertex 2.74379 1.79686 4.9
      vertex 2.74379 6.00314 4.9
    endloop
  endfacet
  facet normal 0 0 1
    outer loop
      vertex 2.61402 5.92639 4.9
      vertex 2.61402 1.87361 4.9
      vertex 2.74379 1.79686 4.9
    endloop
  endfacet
  facet normal -0 0 1
    outer loop
      vertex 2.48932 5.84164 4.9
      vertex 2.61402 1.87361 4.9
      vertex 2.61402 5.92639 4.9
    endloop
  endfacet
  facet normal 0 0 1
    outer loop
      vertex 2.48932 5.84164 4.9
      vertex 2.48932 1.95836 4.9
      vertex 2.61402 1.87361 4.9
    endloop
  endfacet
  facet normal -0 0 1
    outer loop
      vertex 2.37018 5.74923 4.9
      vertex 2.48932 1.95836 4.9
      vertex 2.48932 5.84164 4.9
    endloop
  endfacet
  facet normal 0 0 1
    outer loop
      vertex 2.37018 5.74923 4.9
      vertex 2.37018 2.05077 4.9
      vertex 2.48932 1.95836 4.9
    endloop
  endfacet
  facet normal -0 0 1
    outer loop
      vertex 2.25709 5.64952 4.9
      vertex 2.37018 2.05077 4.9
      vertex 2.37018 5.74923 4.9
    endloop
  endfacet
  facet normal 0 0 1
    outer loop
      vertex 2.25709 5.64952 4.9
      vertex 2.25709 2.15047 4.9
      vertex 2.37018 2.05077 4.9
    endloop
  endfacet
  facet normal -0 0 1
    outer loop
      vertex 2.15047 5.54291 4.9
      vertex 2.25709 2.15047 4.9
      vertex 2.25709 5.64952 4.9
    endloop
  endfacet
  facet normal 0 0 1
    outer loop
      vertex 2.15047 5.54291 4.9
      vertex 2.15047 2.25709 4.9
      vertex 2.25709 2.15047 4.9
    endloop
  endfacet
  facet normal -0 0 1
    outer loop
      vertex 2.05077 5.42982 4.9
      vertex 2.15047 2.25709 4.9
      vertex 2.15047 5.54291 4.9
    endloop
  endfacet
  facet normal 0 0 1
    outer loop
      vertex 2.05077 5.42982 4.9
      vertex 2.05077 2.37018 4.9
      vertex 2.15047 2.25709 4.9
    endloop
  endfacet
  facet normal -0 0 1
    outer loop
      vertex 1.95836 5.31068 4.9
      vertex 2.05077 2.37018 4.9
      vertex 2.05077 5.42982 4.9
    endloop
  endfacet
  facet normal 0 0 1
    outer loop
      vertex 1.95836 5.31068 4.9
      vertex 1.95836 2.48932 4.9
      vertex 2.05077 2.37018 4.9
    endloop
  endfacet
  facet normal -0 0 1
    outer loop
      vertex 1.87361 5.18598 4.9
      vertex 1.95836 2.48932 4.9
      vertex 1.95836 5.31068 4.9
    endloop
  endfacet
  facet normal 0 0 1
    outer loop
      vertex 1.87361 5.18598 4.9
      vertex 1.87361 2.61402 4.9
      vertex 1.95836 2.48932 4.9
    endloop
  endfacet
  facet normal -0 0 1
    outer loop
      vertex 1.79686 5.05621 4.9
      vertex 1.87361 2.61402 4.9
      vertex 1.87361 5.18598 4.9
    endloop
  endfacet
  facet normal 0 0 1
    outer loop
      vertex 1.79686 5.05621 4.9
      vertex 1.79686 2.74379 4.9
      vertex 1.87361 2.61402 4.9
    endloop
  endfacet
  facet normal -0 0 1
    outer loop
      vertex 1.72841 4.92187 4.9
      vertex 1.79686 2.74379 4.9
      vertex 1.79686 5.05621 4.9
    endloop
  endfacet
  facet normal 0 0 1
    outer loop
      vertex 1.72841 4.92187 4.9
      vertex 1.72841 2.87813 4.9
      vertex 1.79686 2.74379 4.9
    endloop
  endfacet
  facet normal -0 0 1
    outer loop
      vertex 1.66854 4.7835 4.9
      vertex 1.72841 2.87813 4.9
      vertex 1.72841 4.92187 4.9
    endloop
  endfacet
  facet normal 0 0 1
    outer loop
      vertex 1.66854 4.7835 4.9
      vertex 1.66854 3.0165 4.9
      vertex 1.72841 2.87813 4.9
    endloop
  endfacet
  facet normal -0 0 1
    outer loop
      vertex 1.61746 4.64164 4.9
      vertex 1.66854 3.0165 4.9
      vertex 1.66854 4.7835 4.9
    endloop
  endfacet
  facet normal 0 0 1
    outer loop
      vertex 1.61746 4.64164 4.9
      vertex 1.61746 3.15836 4.9
      vertex 1.66854 3.0165 4.9
    endloop
  endfacet
  facet normal -0 0 1
    outer loop
      vertex 1.5754 4.49685 4.9
      vertex 1.61746 3.15836 4.9
      vertex 1.61746 4.64164 4.9
    endloop
  endfacet
  facet normal 0 0 1
    outer loop
      vertex 1.5754 4.49685 4.9
      vertex 1.5754 3.30314 4.9
      vertex 1.61746 3.15836 4.9
    endloop
  endfacet
  facet normal -0 0 1
    outer loop
      vertex 1.54251 4.34971 4.9
      vertex 1.5754 3.30314 4.9
      vertex 1.5754 4.49685 4.9
    endloop
  endfacet
  facet normal 0 0 1
    outer loop
      vertex 1.54251 4.34971 4.9
      vertex 1.54251 3.45028 4.9
      vertex 1.5754 3.30314 4.9
    endloop
  endfacet
  facet normal -0 0 1
    outer loop
      vertex 1.51892 4.2008 4.9
      vertex 1.54251 3.45028 4.9
      vertex 1.54251 4.34971 4.9
    endloop
  endfacet
  facet normal 0 0 1
    outer loop
      vertex 1.51892 4.2008 4.9
      vertex 1.51892 3.5992 4.9
      vertex 1.54251 3.45028 4.9
    endloop
  endfacet
  facet normal -0 0 1
    outer loop
      vertex 1.50473 4.0507 4.9
      vertex 1.51892 3.5992 4.9
      vertex 1.51892 4.2008 4.9
    endloop
  endfacet
  facet normal 0 0 1
    outer loop
      vertex 1.50473 4.0507 4.9
      vertex 1.50473 3.7493 4.9
      vertex 1.51892 3.5992 4.9
    endloop
  endfacet
  facet normal 0 -0 1
    outer loop
      vertex 1.50473 3.7493 4.9
      vertex 1.50473 4.0507 4.9
      vertex 1.5 3.9 4.9
    endloop
  endfacet
  facet normal -0.917774 0.397103 0
    outer loop
      vertex 1.66854 4.7835 3.2
      vertex 1.72841 4.92187 4.9
      vertex 1.72841 4.92187 3.2
    endloop
  endfacet
  facet normal -0.917774 0.397103 0
    outer loop
      vertex 1.72841 4.92187 4.9
      vertex 1.66854 4.7835 3.2
      vertex 1.66854 4.7835 4.9
    endloop
  endfacet
  facet normal -0.790169 0.612889 0
    outer loop
      vertex 1.95836 5.31068 3.2
      vertex 2.05077 5.42982 4.9
      vertex 2.05077 5.42982 3.2
    endloop
  endfacet
  facet normal -0.790169 0.612889 0
    outer loop
      vertex 2.05077 5.42982 4.9
      vertex 1.95836 5.31068 3.2
      vertex 1.95836 5.31068 4.9
    endloop
  endfacet
  facet normal -0.827068 0.562101 0
    outer loop
      vertex 1.87361 5.18598 3.2
      vertex 1.95836 5.31068 4.9
      vertex 1.95836 5.31068 3.2
    endloop
  endfacet
  facet normal -0.827068 0.562101 0
    outer loop
      vertex 1.95836 5.31068 4.9
      vertex 1.87361 5.18598 3.2
      vertex 1.87361 5.18598 4.9
    endloop
  endfacet
  facet normal -0.338781 0.940865 0
    outer loop
      vertex 3.15836 6.18254 3.2
      vertex 3.0165 6.13146 4.9
      vertex 3.15836 6.18254 4.9
    endloop
  endfacet
  facet normal -0.338781 0.940865 0
    outer loop
      vertex 3.0165 6.13146 4.9
      vertex 3.15836 6.18254 3.2
      vertex 3.0165 6.13146 3.2
    endloop
  endfacet
  facet normal -0.0941173 0.995561 0
    outer loop
      vertex 3.7493 6.29526 3.2
      vertex 3.5992 6.28107 4.9
      vertex 3.7493 6.29526 4.9
    endloop
  endfacet
  facet normal -0.0941173 0.995561 0
    outer loop
      vertex 3.5992 6.28107 4.9
      vertex 3.7493 6.29526 3.2
      vertex 3.5992 6.28107 3.2
    endloop
  endfacet
  facet normal -0.509062 0.86073 0
    outer loop
      vertex 2.74379 6.00314 3.2
      vertex 2.61402 5.92639 4.9
      vertex 2.74379 6.00314 4.9
    endloop
  endfacet
  facet normal -0.509062 0.86073 0
    outer loop
      vertex 2.61402 5.92639 4.9
      vertex 2.74379 6.00314 3.2
      vertex 2.61402 5.92639 3.2
    endloop
  endfacet
  facet normal -0.661341 0.750086 0
    outer loop
      vertex 2.37018 5.74923 3.2
      vertex 2.25709 5.64952 4.9
      vertex 2.37018 5.74923 4.9
    endloop
  endfacet
  facet normal -0.661341 0.750086 0
    outer loop
      vertex 2.25709 5.64952 4.9
      vertex 2.37018 5.74923 3.2
      vertex 2.25709 5.64952 3.2
    endloop
  endfacet
  facet normal -0.612889 0.790169 0
    outer loop
      vertex 2.48932 5.84164 3.2
      vertex 2.37018 5.74923 4.9
      vertex 2.48932 5.84164 4.9
    endloop
  endfacet
  facet normal -0.612889 0.790169 0
    outer loop
      vertex 2.37018 5.74923 4.9
      vertex 2.48932 5.84164 3.2
      vertex 2.37018 5.74923 3.2
    endloop
  endfacet
  facet normal 0.999506 -0.0314377 0
    outer loop
      vertex 6.29526 3.7493 4.9
      vertex 6.3 3.9 3.2
      vertex 6.3 3.9 4.9
    endloop
  endfacet
  facet normal 0.999506 -0.0314377 0
    outer loop
      vertex 6.3 3.9 3.2
      vertex 6.29526 3.7493 4.9
      vertex 6.29526 3.7493 3.2
    endloop
  endfacet
  facet normal 0.0941173 -0.995561 0
    outer loop
      vertex 4.0507 1.50473 3.2
      vertex 4.2008 1.51892 4.9
      vertex 4.0507 1.50473 4.9
    endloop
  endfacet
  facet normal 0.0941173 -0.995561 0
    outer loop
      vertex 4.2008 1.51892 4.9
      vertex 4.0507 1.50473 3.2
      vertex 4.2008 1.51892 3.2
    endloop
  endfacet
  facet normal 0.987695 -0.156392 0
    outer loop
      vertex 6.25749 3.45028 4.9
      vertex 6.28107 3.5992 3.2
      vertex 6.28107 3.5992 4.9
    endloop
  endfacet
  facet normal 0.987695 -0.156392 0
    outer loop
      vertex 6.28107 3.5992 3.2
      vertex 6.25749 3.45028 4.9
      vertex 6.25749 3.45028 3.2
    endloop
  endfacet
  facet normal 0.218145 -0.975916 0
    outer loop
      vertex 4.34971 1.54251 3.2
      vertex 4.49685 1.5754 4.9
      vertex 4.34971 1.54251 4.9
    endloop
  endfacet
  facet normal 0.218145 -0.975916 0
    outer loop
      vertex 4.49685 1.5754 4.9
      vertex 4.34971 1.54251 3.2
      vertex 4.49685 1.5754 3.2
    endloop
  endfacet
  facet normal 0.338781 -0.940865 0
    outer loop
      vertex 4.64164 1.61746 3.2
      vertex 4.7835 1.66854 4.9
      vertex 4.64164 1.61746 4.9
    endloop
  endfacet
  facet normal 0.338781 -0.940865 0
    outer loop
      vertex 4.7835 1.66854 4.9
      vertex 4.64164 1.61746 3.2
      vertex 4.7835 1.66854 3.2
    endloop
  endfacet
  facet normal 0.612889 -0.790169 0
    outer loop
      vertex 5.31068 1.95836 3.2
      vertex 5.42982 2.05077 4.9
      vertex 5.31068 1.95836 4.9
    endloop
  endfacet
  facet normal 0.612889 -0.790169 0
    outer loop
      vertex 5.42982 2.05077 4.9
      vertex 5.31068 1.95836 3.2
      vertex 5.42982 2.05077 3.2
    endloop
  endfacet
  facet normal 0.70714 -0.707074 0
    outer loop
      vertex 5.54291 2.15047 4.9
      vertex 5.64952 2.25709 3.2
      vertex 5.64952 2.25709 4.9
    endloop
  endfacet
  facet normal 0.70714 -0.707074 0
    outer loop
      vertex 5.64952 2.25709 3.2
      vertex 5.54291 2.15047 4.9
      vertex 5.54291 2.15047 3.2
    endloop
  endfacet
  facet normal 0.509062 -0.86073 0
    outer loop
      vertex 5.05621 1.79686 3.2
      vertex 5.18598 1.87361 4.9
      vertex 5.05621 1.79686 4.9
    endloop
  endfacet
  facet normal 0.509062 -0.86073 0
    outer loop
      vertex 5.18598 1.87361 4.9
      vertex 5.05621 1.79686 3.2
      vertex 5.18598 1.87361 3.2
    endloop
  endfacet
  facet normal -0.278976 -0.960298 0
    outer loop
      vertex 3.15836 1.61746 3.2
      vertex 3.30314 1.5754 4.9
      vertex 3.15836 1.61746 4.9
    endloop
  endfacet
  facet normal -0.278976 -0.960298 -0
    outer loop
      vertex 3.30314 1.5754 4.9
      vertex 3.15836 1.61746 3.2
      vertex 3.30314 1.5754 3.2
    endloop
  endfacet
  facet normal -0.0313714 -0.999508 0
    outer loop
      vertex 3.7493 1.50473 3.2
      vertex 3.9 1.5 4.9
      vertex 3.7493 1.50473 4.9
    endloop
  endfacet
  facet normal -0.0313714 -0.999508 -0
    outer loop
      vertex 3.9 1.5 4.9
      vertex 3.7493 1.50473 3.2
      vertex 3.9 1.5 3.2
    endloop
  endfacet
  facet normal -0.156456 -0.987685 0
    outer loop
      vertex 3.45028 1.54251 3.2
      vertex 3.5992 1.51892 4.9
      vertex 3.45028 1.54251 4.9
    endloop
  endfacet
  facet normal -0.156456 -0.987685 -0
    outer loop
      vertex 3.5992 1.51892 4.9
      vertex 3.45028 1.54251 3.2
      vertex 3.5992 1.51892 3.2
    endloop
  endfacet
  facet normal -0.397103 -0.917774 0
    outer loop
      vertex 2.87813 1.72841 3.2
      vertex 3.0165 1.66854 4.9
      vertex 2.87813 1.72841 4.9
    endloop
  endfacet
  facet normal -0.397103 -0.917774 -0
    outer loop
      vertex 3.0165 1.66854 4.9
      vertex 2.87813 1.72841 3.2
      vertex 3.0165 1.66854 3.2
    endloop
  endfacet
  facet normal -0.562101 -0.827068 0
    outer loop
      vertex 2.48932 1.95836 3.2
      vertex 2.61402 1.87361 4.9
      vertex 2.48932 1.95836 4.9
    endloop
  endfacet
  facet normal -0.562101 -0.827068 -0
    outer loop
      vertex 2.61402 1.87361 4.9
      vertex 2.48932 1.95836 3.2
      vertex 2.61402 1.87361 3.2
    endloop
  endfacet
  facet normal -0.940865 -0.338781 0
    outer loop
      vertex 1.66854 3.0165 3.2
      vertex 1.61746 3.15836 4.9
      vertex 1.61746 3.15836 3.2
    endloop
  endfacet
  facet normal -0.940865 -0.338781 0
    outer loop
      vertex 1.61746 3.15836 4.9
      vertex 1.66854 3.0165 3.2
      vertex 1.66854 3.0165 4.9
    endloop
  endfacet
  facet normal -0.975916 -0.218145 0
    outer loop
      vertex 1.5754 3.30314 3.2
      vertex 1.54251 3.45028 4.9
      vertex 1.54251 3.45028 3.2
    endloop
  endfacet
  facet normal -0.975916 -0.218145 0
    outer loop
      vertex 1.54251 3.45028 4.9
      vertex 1.5754 3.30314 3.2
      vertex 1.5754 3.30314 4.9
    endloop
  endfacet
  facet normal -0.995561 -0.0941173 0
    outer loop
      vertex 1.51892 3.5992 3.2
      vertex 1.50473 3.7493 4.9
      vertex 1.50473 3.7493 3.2
    endloop
  endfacet
  facet normal -0.995561 -0.0941173 0
    outer loop
      vertex 1.50473 3.7493 4.9
      vertex 1.51892 3.5992 3.2
      vertex 1.51892 3.5992 4.9
    endloop
  endfacet
  facet normal -0.86073 -0.509062 0
    outer loop
      vertex 1.87361 2.61402 3.2
      vertex 1.79686 2.74379 4.9
      vertex 1.79686 2.74379 3.2
    endloop
  endfacet
  facet normal -0.86073 -0.509062 0
    outer loop
      vertex 1.79686 2.74379 4.9
      vertex 1.87361 2.61402 3.2
      vertex 1.87361 2.61402 4.9
    endloop
  endfacet
  facet normal -0.707107 -0.707107 0
    outer loop
      vertex 2.25709 2.15047 3.2
      vertex 2.15047 2.25709 4.9
      vertex 2.15047 2.25709 3.2
    endloop
  endfacet
  facet normal -0.707107 -0.707107 0
    outer loop
      vertex 2.15047 2.25709 4.9
      vertex 2.25709 2.15047 3.2
      vertex 2.25709 2.15047 4.9
    endloop
  endfacet
  facet normal -0.790169 -0.612889 0
    outer loop
      vertex 2.05077 2.37018 3.2
      vertex 1.95836 2.48932 4.9
      vertex 1.95836 2.48932 3.2
    endloop
  endfacet
  facet normal -0.790169 -0.612889 0
    outer loop
      vertex 1.95836 2.48932 4.9
      vertex 2.05077 2.37018 3.2
      vertex 2.05077 2.37018 4.9
    endloop
  endfacet
  facet normal -0.999508 -0.0313714 0
    outer loop
      vertex 1.50473 3.7493 3.2
      vertex 1.5 3.9 4.9
      vertex 1.5 3.9 3.2
    endloop
  endfacet
  facet normal -0.999508 -0.0313714 0
    outer loop
      vertex 1.5 3.9 4.9
      vertex 1.50473 3.7493 3.2
      vertex 1.50473 3.7493 4.9
    endloop
  endfacet
  facet normal 0.995561 -0.0941173 0
    outer loop
      vertex 6.28107 3.5992 4.9
      vertex 6.29526 3.7493 3.2
      vertex 6.29526 3.7493 4.9
    endloop
  endfacet
  facet normal 0.995561 -0.0941173 0
    outer loop
      vertex 6.29526 3.7493 3.2
      vertex 6.28107 3.5992 4.9
      vertex 6.28107 3.5992 3.2
    endloop
  endfacet
  facet normal 0.960298 -0.278976 0
    outer loop
      vertex 6.18254 3.15836 4.9
      vertex 6.2246 3.30314 3.2
      vertex 6.2246 3.30314 4.9
    endloop
  endfacet
  facet normal 0.960298 -0.278976 0
    outer loop
      vertex 6.2246 3.30314 3.2
      vertex 6.18254 3.15836 4.9
      vertex 6.18254 3.15836 3.2
    endloop
  endfacet
  facet normal 0.91775 -0.397159 0
    outer loop
      vertex 6.07158 2.87813 4.9
      vertex 6.13146 3.0165 3.2
      vertex 6.13146 3.0165 4.9
    endloop
  endfacet
  facet normal 0.91775 -0.397159 0
    outer loop
      vertex 6.13146 3.0165 3.2
      vertex 6.07158 2.87813 4.9
      vertex 6.07158 2.87813 3.2
    endloop
  endfacet
  facet normal 0.827068 -0.562101 0
    outer loop
      vertex 5.84164 2.48932 4.9
      vertex 5.92639 2.61402 3.2
      vertex 5.92639 2.61402 4.9
    endloop
  endfacet
  facet normal 0.827068 -0.562101 0
    outer loop
      vertex 5.92639 2.61402 3.2
      vertex 5.84164 2.48932 4.9
      vertex 5.84164 2.48932 3.2
    endloop
  endfacet
  facet normal 0.156467 -0.987683 0
    outer loop
      vertex 4.2008 1.51892 3.2
      vertex 4.34971 1.54251 4.9
      vertex 4.2008 1.51892 4.9
    endloop
  endfacet
  facet normal 0.156467 -0.987683 0
    outer loop
      vertex 4.34971 1.54251 4.9
      vertex 4.2008 1.51892 3.2
      vertex 4.34971 1.54251 3.2
    endloop
  endfacet
  facet normal 0.661303 -0.750118 0
    outer loop
      vertex 5.42982 2.05077 3.2
      vertex 5.54291 2.15047 4.9
      vertex 5.42982 2.05077 4.9
    endloop
  endfacet
  facet normal 0.661303 -0.750118 0
    outer loop
      vertex 5.54291 2.15047 4.9
      vertex 5.42982 2.05077 3.2
      vertex 5.54291 2.15047 3.2
    endloop
  endfacet
  facet normal 0.0313714 -0.999508 0
    outer loop
      vertex 3.9 1.5 3.2
      vertex 4.0507 1.50473 4.9
      vertex 3.9 1.5 4.9
    endloop
  endfacet
  facet normal 0.0313714 -0.999508 0
    outer loop
      vertex 4.0507 1.50473 4.9
      vertex 3.9 1.5 3.2
      vertex 4.0507 1.50473 3.2
    endloop
  endfacet
  facet normal -0.218145 -0.975916 0
    outer loop
      vertex 3.30314 1.5754 3.2
      vertex 3.45028 1.54251 4.9
      vertex 3.30314 1.5754 4.9
    endloop
  endfacet
  facet normal -0.218145 -0.975916 -0
    outer loop
      vertex 3.45028 1.54251 4.9
      vertex 3.30314 1.5754 3.2
      vertex 3.45028 1.54251 3.2
    endloop
  endfacet
  facet normal -0.338781 -0.940865 0
    outer loop
      vertex 3.0165 1.66854 3.2
      vertex 3.15836 1.61746 4.9
      vertex 3.0165 1.66854 4.9
    endloop
  endfacet
  facet normal -0.338781 -0.940865 -0
    outer loop
      vertex 3.15836 1.61746 4.9
      vertex 3.0165 1.66854 3.2
      vertex 3.15836 1.61746 3.2
    endloop
  endfacet
  facet normal -0.612889 -0.790169 0
    outer loop
      vertex 2.37018 2.05077 3.2
      vertex 2.48932 1.95836 4.9
      vertex 2.37018 2.05077 4.9
    endloop
  endfacet
  facet normal -0.612889 -0.790169 -0
    outer loop
      vertex 2.48932 1.95836 4.9
      vertex 2.37018 2.05077 3.2
      vertex 2.48932 1.95836 3.2
    endloop
  endfacet
  facet normal -0.917774 -0.397103 0
    outer loop
      vertex 1.72841 2.87813 3.2
      vertex 1.66854 3.0165 4.9
      vertex 1.66854 3.0165 3.2
    endloop
  endfacet
  facet normal -0.917774 -0.397103 0
    outer loop
      vertex 1.66854 3.0165 4.9
      vertex 1.72841 2.87813 3.2
      vertex 1.72841 2.87813 4.9
    endloop
  endfacet
  facet normal -0.987685 -0.156456 0
    outer loop
      vertex 1.54251 3.45028 3.2
      vertex 1.51892 3.5992 4.9
      vertex 1.51892 3.5992 3.2
    endloop
  endfacet
  facet normal -0.987685 -0.156456 0
    outer loop
      vertex 1.51892 3.5992 4.9
      vertex 1.54251 3.45028 3.2
      vertex 1.54251 3.45028 4.9
    endloop
  endfacet
  facet normal -0.827068 -0.562101 0
    outer loop
      vertex 1.95836 2.48932 3.2
      vertex 1.87361 2.61402 4.9
      vertex 1.87361 2.61402 3.2
    endloop
  endfacet
  facet normal -0.827068 -0.562101 0
    outer loop
      vertex 1.87361 2.61402 4.9
      vertex 1.95836 2.48932 3.2
      vertex 1.95836 2.48932 4.9
    endloop
  endfacet
  facet normal -0.750118 -0.661303 0
    outer loop
      vertex 2.15047 2.25709 3.2
      vertex 2.05077 2.37018 4.9
      vertex 2.05077 2.37018 3.2
    endloop
  endfacet
  facet normal -0.750118 -0.661303 0
    outer loop
      vertex 2.05077 2.37018 4.9
      vertex 2.15047 2.25709 3.2
      vertex 2.15047 2.25709 4.9
    endloop
  endfacet
  facet normal 0.790169 -0.612889 0
    outer loop
      vertex 5.74923 2.37018 4.9
      vertex 5.84164 2.48932 3.2
      vertex 5.84164 2.48932 4.9
    endloop
  endfacet
  facet normal 0.790169 -0.612889 0
    outer loop
      vertex 5.84164 2.48932 3.2
      vertex 5.74923 2.37018 4.9
      vertex 5.74923 2.37018 3.2
    endloop
  endfacet
  facet normal 0.750086 -0.661341 0
    outer loop
      vertex 5.64952 2.25709 4.9
      vertex 5.74923 2.37018 3.2
      vertex 5.74923 2.37018 4.9
    endloop
  endfacet
  facet normal 0.750086 -0.661341 0
    outer loop
      vertex 5.74923 2.37018 3.2
      vertex 5.64952 2.25709 4.9
      vertex 5.64952 2.25709 3.2
    endloop
  endfacet
  facet normal 0.891032 -0.45394 0
    outer loop
      vertex 6.00314 2.74379 4.9
      vertex 6.07158 2.87813 3.2
      vertex 6.07158 2.87813 4.9
    endloop
  endfacet
  facet normal 0.891032 -0.45394 0
    outer loop
      vertex 6.07158 2.87813 3.2
      vertex 6.00314 2.74379 4.9
      vertex 6.00314 2.74379 3.2
    endloop
  endfacet
  facet normal 0.86073 -0.509062 0
    outer loop
      vertex 5.92639 2.61402 4.9
      vertex 6.00314 2.74379 3.2
      vertex 6.00314 2.74379 4.9
    endloop
  endfacet
  facet normal 0.86073 -0.509062 0
    outer loop
      vertex 6.00314 2.74379 3.2
      vertex 5.92639 2.61402 4.9
      vertex 5.92639 2.61402 3.2
    endloop
  endfacet
endsolid OpenSCAD_Model
