solid OpenSCAD_Model
  facet normal 0 0 1
    outer loop
      vertex 4.0506973 6.2952642 3.2
      vertex 4.2008 6.2810755 3.2
      vertex 0 7.8 3.2
    endloop
  endfacet
  facet normal 0 0 1
    outer loop
      vertex 0 7.8 3.2
      vertex 2.4893155 5.841641 3.2
      vertex 2.6140156 5.926387 3.2
    endloop
  endfacet
  facet normal 0 0 1
    outer loop
      vertex 0 7.8 3.2
      vertex 2.6140156 5.926387 3.2
      vertex 2.743791 6.003136 3.2
    endloop
  endfacet
  facet normal 0 0 1
    outer loop
      vertex 0 7.8 3.2
      vertex 2.743791 6.003136 3.2
      vertex 2.8781297 6.0715847 3.2
    endloop
  endfacet
  facet normal 0 0 1
    outer loop
      vertex 0 7.8 3.2
      vertex 2.8781297 6.0715847 3.2
      vertex 3.0165012 6.1314635 3.2
    endloop
  endfacet
  facet normal 0 0 1
    outer loop
      vertex 0 7.8 3.2
      vertex 3.0165012 6.1314635 3.2
      vertex 3.1583593 6.1825356 3.2
    endloop
  endfacet
  facet normal 0 0 1
    outer loop
      vertex 0 7.8 3.2
      vertex 3.1583593 6.1825356 3.2
      vertex 3.3031442 6.2245994 3.2
    endloop
  endfacet
  facet normal 0 0 1
    outer loop
      vertex 3.450285 6.257489 3.2
      vertex 0 7.8 3.2
      vertex 3.3031442 6.2245994 3.2
    endloop
  endfacet
  facet normal 0 0 1
    outer loop
      vertex 3.450285 6.257489 3.2
      vertex 3.5992002 6.2810755 3.2
      vertex 0 7.8 3.2
    endloop
  endfacet
  facet normal 0 0 1
    outer loop
      vertex 3.5992002 6.2810755 3.2
      vertex 3.7493029 6.2952642 3.2
      vertex 0 7.8 3.2
    endloop
  endfacet
  facet normal 0 0 1
    outer loop
      vertex 3.7493029 6.2952642 3.2
      vertex 3.9 6.3 3.2
      vertex 0 7.8 3.2
    endloop
  endfacet
  facet normal 0 0 1
    outer loop
      vertex 3.9 6.3 3.2
      vertex 4.0506973 6.2952642 3.2
      vertex 0 7.8 3.2
    endloop
  endfacet
  facet normal 0 0 1
    outer loop
      vertex 0 7.8 3.2
      vertex 2.3701825 5.749232 3.2
      vertex 2.4893155 5.841641 3.2
    endloop
  endfacet
  facet normal 0 0 1
    outer loop
      vertex 4.2008 6.2810755 3.2
      vertex 4.349715 6.257489 3.2
      vertex 0 7.8 3.2
    endloop
  endfacet
  facet normal 0 0 1
    outer loop
      vertex 4.349715 6.257489 3.2
      vertex 4.4968557 6.2245994 3.2
      vertex 0 7.8 3.2
    endloop
  endfacet
  facet normal 0 -1 0
    outer loop
      vertex 7.8 0 3.2
      vertex 0 0 0
      vertex 7.8 0 0
    endloop
  endfacet
  facet normal 0 0 -1
    outer loop
      vertex 7.8 0 0
      vertex 1.5 1.5 0
      vertex 6.3 1.5 0
    endloop
  endfacet
  facet normal 0 0 -1
    outer loop
      vertex 7.8 0 0
      vertex 6.3 1.5 0
      vertex 6.3 6.3 0
    endloop
  endfacet
  facet normal 1 0 0
    outer loop
      vertex 7.8 0 3.2
      vertex 7.8 0 0
      vertex 7.8 7.8 0
    endloop
  endfacet
  facet normal 0 0 1
    outer loop
      vertex 0 0 3.2
      vertex 7.8 0 3.2
      vertex 4.4968557 1.5754005 3.2
    endloop
  endfacet
  facet normal 0 0 1
    outer loop
      vertex 7.8 0 3.2
      vertex 4.6416407 1.6174643 3.2
      vertex 4.4968557 1.5754005 3.2
    endloop
  endfacet
  facet normal 0 0 1
    outer loop
      vertex 7.8 0 3.2
      vertex 4.783499 1.6685364 3.2
      vertex 4.6416407 1.6174643 3.2
    endloop
  endfacet
  facet normal 0 0 1
    outer loop
      vertex 7.8 0 3.2
      vertex 4.92187 1.7284151 3.2
      vertex 4.783499 1.6685364 3.2
    endloop
  endfacet
  facet normal 0 0 1
    outer loop
      vertex 0 7.8 3.2
      vertex 1.5425106 4.349715 3.2
      vertex 1.5754005 4.4968557 3.2
    endloop
  endfacet
  facet normal -1 0 0
    outer loop
      vertex 0 7.8 0
      vertex 0 0 0
      vertex 0 7.8 3.2
    endloop
  endfacet
  facet normal 0 0 -1
    outer loop
      vertex 1.5 6.3 0
      vertex 1.5 1.5 0
      vertex 0 7.8 0
    endloop
  endfacet
  facet normal 0 0 -1
    outer loop
      vertex 1.5 6.3 0
      vertex 0 7.8 0
      vertex 6.3 6.3 0
    endloop
  endfacet
  facet normal 0 1 0
    outer loop
      vertex 0 7.8 0
      vertex 0 7.8 3.2
      vertex 7.8 7.8 0
    endloop
  endfacet
  facet normal 0 0 1
    outer loop
      vertex 0 7.8 3.2
      vertex 1.5754005 3.3031442 3.2
      vertex 1.5425106 3.450285 3.2
    endloop
  endfacet
  facet normal 0 0 1
    outer loop
      vertex 0 7.8 3.2
      vertex 1.5425106 3.450285 3.2
      vertex 1.5189247 3.5992002 3.2
    endloop
  endfacet
  facet normal 0 0 1
    outer loop
      vertex 0 7.8 3.2
      vertex 1.5189247 3.5992002 3.2
      vertex 1.5047358 3.7493029 3.2
    endloop
  endfacet
  facet normal 0 0 1
    outer loop
      vertex 0 7.8 3.2
      vertex 1.5047358 3.7493029 3.2
      vertex 1.5 3.9 3.2
    endloop
  endfacet
  facet normal 0 0 1
    outer loop
      vertex 0 7.8 3.2
      vertex 1.5 3.9 3.2
      vertex 1.5047358 4.0506973 3.2
    endloop
  endfacet
  facet normal 0 0 1
    outer loop
      vertex 0 7.8 3.2
      vertex 1.5047358 4.0506973 3.2
      vertex 1.5189247 4.2008 3.2
    endloop
  endfacet
  facet normal 0 0 1
    outer loop
      vertex 0 7.8 3.2
      vertex 1.5189247 4.2008 3.2
      vertex 1.5425106 4.349715 3.2
    endloop
  endfacet
  facet normal 0 0 1
    outer loop
      vertex 7.8 0 3.2
      vertex 5.0562086 1.7968639 3.2
      vertex 4.92187 1.7284151 3.2
    endloop
  endfacet
  facet normal 0 0 1
    outer loop
      vertex 1.5754005 4.4968557 3.2
      vertex 1.6174643 4.6416407 3.2
      vertex 0 7.8 3.2
    endloop
  endfacet
  facet normal 0 0 1
    outer loop
      vertex 1.6174643 4.6416407 3.2
      vertex 1.6685364 4.783499 3.2
      vertex 0 7.8 3.2
    endloop
  endfacet
  facet normal 0 0 1
    outer loop
      vertex 1.6685364 4.783499 3.2
      vertex 1.7284151 4.92187 3.2
      vertex 0 7.8 3.2
    endloop
  endfacet
  facet normal 0 0 1
    outer loop
      vertex 1.7284151 4.92187 3.2
      vertex 1.7968639 5.0562086 3.2
      vertex 0 7.8 3.2
    endloop
  endfacet
  facet normal 0 0 1
    outer loop
      vertex 1.7968639 5.0562086 3.2
      vertex 1.873613 5.185984 3.2
      vertex 0 7.8 3.2
    endloop
  endfacet
  facet normal 0 0 1
    outer loop
      vertex 1.873613 5.185984 3.2
      vertex 1.9583592 5.3106847 3.2
      vertex 0 7.8 3.2
    endloop
  endfacet
  facet normal 0 0 1
    outer loop
      vertex 1.9583592 5.3106847 3.2
      vertex 2.0507681 5.4298177 3.2
      vertex 0 7.8 3.2
    endloop
  endfacet
  facet normal 0 0 1
    outer loop
      vertex 2.0507681 5.4298177 3.2
      vertex 2.1504753 5.542913 3.2
      vertex 0 7.8 3.2
    endloop
  endfacet
  facet normal 0 0 1
    outer loop
      vertex 2.1504753 5.542913 3.2
      vertex 2.257087 5.6495247 3.2
      vertex 0 7.8 3.2
    endloop
  endfacet
  facet normal 0 0 1
    outer loop
      vertex 0 7.8 3.2
      vertex 2.257087 5.6495247 3.2
      vertex 2.3701825 5.749232 3.2
    endloop
  endfacet
  facet normal 0 0 1
    outer loop
      vertex 5.542913 5.6495247 3.2
      vertex 5.6495247 5.542913 3.2
      vertex 7.8 7.8 3.2
    endloop
  endfacet
  facet normal 0 0 1
    outer loop
      vertex 6.257489 3.450285 3.2
      vertex 6.2245994 3.3031442 3.2
      vertex 7.8 7.8 3.2
    endloop
  endfacet
  facet normal 0 0 1
    outer loop
      vertex 6.2810755 3.5992002 3.2
      vertex 6.257489 3.450285 3.2
      vertex 7.8 7.8 3.2
    endloop
  endfacet
  facet normal 0 0 1
    outer loop
      vertex 6.2952642 3.7493029 3.2
      vertex 6.2810755 3.5992002 3.2
      vertex 7.8 7.8 3.2
    endloop
  endfacet
  facet normal 0 0 1
    outer loop
      vertex 6.3 3.9 3.2
      vertex 6.2952642 3.7493029 3.2
      vertex 7.8 7.8 3.2
    endloop
  endfacet
  facet normal 0 0 1
    outer loop
      vertex 6.2952642 4.0506973 3.2
      vertex 6.3 3.9 3.2
      vertex 7.8 7.8 3.2
    endloop
  endfacet
  facet normal 0 0 1
    outer loop
      vertex 6.2810755 4.2008 3.2
      vertex 6.2952642 4.0506973 3.2
      vertex 7.8 7.8 3.2
    endloop
  endfacet
  facet normal 0 0 1
    outer loop
      vertex 6.257489 4.349715 3.2
      vertex 6.2810755 4.2008 3.2
      vertex 7.8 7.8 3.2
    endloop
  endfacet
  facet normal 0 0 1
    outer loop
      vertex 6.2245994 4.4968557 3.2
      vertex 6.257489 4.349715 3.2
      vertex 7.8 7.8 3.2
    endloop
  endfacet
  facet normal 0 0 1
    outer loop
      vertex 6.0715847 4.92187 3.2
      vertex 6.1314635 4.783499 3.2
      vertex 7.8 7.8 3.2
    endloop
  endfacet
  facet normal 0 0 1
    outer loop
      vertex 6.1825356 4.6416407 3.2
      vertex 6.2245994 4.4968557 3.2
      vertex 7.8 7.8 3.2
    endloop
  endfacet
  facet normal 0 0 1
    outer loop
      vertex 6.1314635 4.783499 3.2
      vertex 6.1825356 4.6416407 3.2
      vertex 7.8 7.8 3.2
    endloop
  endfacet
  facet normal 0 0 1
    outer loop
      vertex 4.6416407 6.1825356 3.2
      vertex 4.783499 6.1314635 3.2
      vertex 7.8 7.8 3.2
    endloop
  endfacet
  facet normal 0 0 1
    outer loop
      vertex 5.0562086 6.003136 3.2
      vertex 5.185984 5.926387 3.2
      vertex 7.8 7.8 3.2
    endloop
  endfacet
  facet normal 0 0 1
    outer loop
      vertex 4.92187 6.0715847 3.2
      vertex 5.0562086 6.003136 3.2
      vertex 7.8 7.8 3.2
    endloop
  endfacet
  facet normal 0 0 1
    outer loop
      vertex 5.185984 5.926387 3.2
      vertex 5.3106847 5.841641 3.2
      vertex 7.8 7.8 3.2
    endloop
  endfacet
  facet normal 0 0 1
    outer loop
      vertex 5.3106847 5.841641 3.2
      vertex 5.4298177 5.749232 3.2
      vertex 7.8 7.8 3.2
    endloop
  endfacet
  facet normal 0 0 1
    outer loop
      vertex 5.4298177 5.749232 3.2
      vertex 5.542913 5.6495247 3.2
      vertex 7.8 7.8 3.2
    endloop
  endfacet
  facet normal 0 0 1
    outer loop
      vertex 5.926387 5.185984 3.2
      vertex 6.003136 5.0562086 3.2
      vertex 7.8 7.8 3.2
    endloop
  endfacet
  facet normal 0 0 1
    outer loop
      vertex 5.6495247 5.542913 3.2
      vertex 5.749232 5.4298177 3.2
      vertex 7.8 7.8 3.2
    endloop
  endfacet
  facet normal 0 0 1
    outer loop
      vertex 5.749232 5.4298177 3.2
      vertex 5.841641 5.3106847 3.2
      vertex 7.8 7.8 3.2
    endloop
  endfacet
  facet normal 0 0 1
    outer loop
      vertex 5.841641 5.3106847 3.2
      vertex 5.926387 5.185984 3.2
      vertex 7.8 7.8 3.2
    endloop
  endfacet
  facet normal 0 0 1
    outer loop
      vertex 6.003136 5.0562086 3.2
      vertex 6.0715847 4.92187 3.2
      vertex 7.8 7.8 3.2
    endloop
  endfacet
  facet normal 0 0 1
    outer loop
      vertex 6.1314635 3.0165012 3.2
      vertex 6.0715847 2.8781297 3.2
      vertex 7.8 0 3.2
    endloop
  endfacet
  facet normal 0 0 1
    outer loop
      vertex 7.8 0 3.2
      vertex 5.185984 1.873613 3.2
      vertex 5.0562086 1.7968639 3.2
    endloop
  endfacet
  facet normal 0 0 1
    outer loop
      vertex 7.8 0 3.2
      vertex 5.3106847 1.9583592 3.2
      vertex 5.185984 1.873613 3.2
    endloop
  endfacet
  facet normal 0 0 1
    outer loop
      vertex 7.8 0 3.2
      vertex 5.4298177 2.0507681 3.2
      vertex 5.3106847 1.9583592 3.2
    endloop
  endfacet
  facet normal 0 0 1
    outer loop
      vertex 7.8 0 3.2
      vertex 5.542913 2.1504753 3.2
      vertex 5.4298177 2.0507681 3.2
    endloop
  endfacet
  facet normal 0 0 1
    outer loop
      vertex 5.6495247 2.257087 3.2
      vertex 5.542913 2.1504753 3.2
      vertex 7.8 0 3.2
    endloop
  endfacet
  facet normal 0 0 1
    outer loop
      vertex 5.749232 2.3701825 3.2
      vertex 5.6495247 2.257087 3.2
      vertex 7.8 0 3.2
    endloop
  endfacet
  facet normal 0 0 1
    outer loop
      vertex 5.841641 2.4893155 3.2
      vertex 5.749232 2.3701825 3.2
      vertex 7.8 0 3.2
    endloop
  endfacet
  facet normal 0 0 1
    outer loop
      vertex 5.926387 2.6140156 3.2
      vertex 5.841641 2.4893155 3.2
      vertex 7.8 0 3.2
    endloop
  endfacet
  facet normal 0 0 1
    outer loop
      vertex 6.003136 2.743791 3.2
      vertex 5.926387 2.6140156 3.2
      vertex 7.8 0 3.2
    endloop
  endfacet
  facet normal 0 0 1
    outer loop
      vertex 6.0715847 2.8781297 3.2
      vertex 6.003136 2.743791 3.2
      vertex 7.8 0 3.2
    endloop
  endfacet
  facet normal -1 0 0
    outer loop
      vertex 0 0 0
      vertex 0 0 3.2
      vertex 0 7.8 3.2
    endloop
  endfacet
  facet normal 0 0 1
    outer loop
      vertex 6.1825356 3.1583593 3.2
      vertex 6.1314635 3.0165012 3.2
      vertex 7.8 0 3.2
    endloop
  endfacet
  facet normal 0 0 1
    outer loop
      vertex 6.2245994 3.3031442 3.2
      vertex 6.1825356 3.1583593 3.2
      vertex 7.8 0 3.2
    endloop
  endfacet
  facet normal 0 0 1
    outer loop
      vertex 6.2245994 3.3031442 3.2
      vertex 7.8 0 3.2
      vertex 7.8 7.8 3.2
    endloop
  endfacet
  facet normal 0 0 -1
    outer loop
      vertex 6.3 6.3 0
      vertex 0 7.8 0
      vertex 7.8 7.8 0
    endloop
  endfacet
  facet normal 0 1 0
    outer loop
      vertex 7.8 7.8 0
      vertex 0 7.8 3.2
      vertex 7.8 7.8 3.2
    endloop
  endfacet
  facet normal 0 0 -1
    outer loop
      vertex 7.8 7.8 0
      vertex 7.8 0 0
      vertex 6.3 6.3 0
    endloop
  endfacet
  facet normal 1 0 0
    outer loop
      vertex 7.8 7.8 3.2
      vertex 7.8 0 3.2
      vertex 7.8 7.8 0
    endloop
  endfacet
  facet normal 0 0 1
    outer loop
      vertex 4.4968557 6.2245994 3.2
      vertex 7.8 7.8 3.2
      vertex 0 7.8 3.2
    endloop
  endfacet
  facet normal 0 0 1
    outer loop
      vertex 4.4968557 6.2245994 3.2
      vertex 4.6416407 6.1825356 3.2
      vertex 7.8 7.8 3.2
    endloop
  endfacet
  facet normal 0 0 1
    outer loop
      vertex 4.783499 6.1314635 3.2
      vertex 4.92187 6.0715847 3.2
      vertex 7.8 7.8 3.2
    endloop
  endfacet
  facet normal 0 0 1
    outer loop
      vertex 0 0 3.2
      vertex 3.1583593 1.6174643 3.2
      vertex 3.0165012 1.6685364 3.2
    endloop
  endfacet
  facet normal 0 0 1
    outer loop
      vertex 0 0 3.2
      vertex 2.3701825 2.0507681 3.2
      vertex 2.257087 2.1504753 3.2
    endloop
  endfacet
  facet normal 0 0 1
    outer loop
      vertex 0 0 3.2
      vertex 2.4893155 1.9583592 3.2
      vertex 2.3701825 2.0507681 3.2
    endloop
  endfacet
  facet normal 0 0 1
    outer loop
      vertex 0 0 3.2
      vertex 2.6140156 1.873613 3.2
      vertex 2.4893155 1.9583592 3.2
    endloop
  endfacet
  facet normal 0 0 1
    outer loop
      vertex 0 0 3.2
      vertex 2.8781297 1.7284151 3.2
      vertex 2.743791 1.7968639 3.2
    endloop
  endfacet
  facet normal 0 0 1
    outer loop
      vertex 0 0 3.2
      vertex 2.743791 1.7968639 3.2
      vertex 2.6140156 1.873613 3.2
    endloop
  endfacet
  facet normal 0 0 1
    outer loop
      vertex 0 0 3.2
      vertex 2.257087 2.1504753 3.2
      vertex 2.1504753 2.257087 3.2
    endloop
  endfacet
  facet normal 0 0 1
    outer loop
      vertex 0 7.8 3.2
      vertex 0 0 3.2
      vertex 1.5754005 3.3031442 3.2
    endloop
  endfacet
  facet normal 0 0 1
    outer loop
      vertex 0 0 3.2
      vertex 1.6685364 3.0165012 3.2
      vertex 1.6174643 3.1583593 3.2
    endloop
  endfacet
  facet normal 0 0 1
    outer loop
      vertex 0 0 3.2
      vertex 1.6174643 3.1583593 3.2
      vertex 1.5754005 3.3031442 3.2
    endloop
  endfacet
  facet normal 0 0 1
    outer loop
      vertex 0 0 3.2
      vertex 1.7284151 2.8781297 3.2
      vertex 1.6685364 3.0165012 3.2
    endloop
  endfacet
  facet normal 0 0 -1
    outer loop
      vertex 0 0 0
      vertex 0 7.8 0
      vertex 1.5 1.5 0
    endloop
  endfacet
  facet normal 0 0 1
    outer loop
      vertex 0 0 3.2
      vertex 3.0165012 1.6685364 3.2
      vertex 2.8781297 1.7284151 3.2
    endloop
  endfacet
  facet normal 0 0 1
    outer loop
      vertex 0 0 3.2
      vertex 3.3031442 1.5754005 3.2
      vertex 3.1583593 1.6174643 3.2
    endloop
  endfacet
  facet normal 0 0 1
    outer loop
      vertex 0 0 3.2
      vertex 3.450285 1.5425106 3.2
      vertex 3.3031442 1.5754005 3.2
    endloop
  endfacet
  facet normal 0 0 1
    outer loop
      vertex 0 0 3.2
      vertex 3.5992002 1.5189247 3.2
      vertex 3.450285 1.5425106 3.2
    endloop
  endfacet
  facet normal 0 0 1
    outer loop
      vertex 0 0 3.2
      vertex 3.7493029 1.5047358 3.2
      vertex 3.5992002 1.5189247 3.2
    endloop
  endfacet
  facet normal 0 0 1
    outer loop
      vertex 0 0 3.2
      vertex 3.9 1.5 3.2
      vertex 3.7493029 1.5047358 3.2
    endloop
  endfacet
  facet normal 0 0 1
    outer loop
      vertex 0 0 3.2
      vertex 4.0506973 1.5047358 3.2
      vertex 3.9 1.5 3.2
    endloop
  endfacet
  facet normal 0 0 1
    outer loop
      vertex 0 0 3.2
      vertex 4.2008 1.5189247 3.2
      vertex 4.0506973 1.5047358 3.2
    endloop
  endfacet
  facet normal 0 0 1
    outer loop
      vertex 0 0 3.2
      vertex 4.349715 1.5425106 3.2
      vertex 4.2008 1.5189247 3.2
    endloop
  endfacet
  facet normal 0 0 1
    outer loop
      vertex 0 0 3.2
      vertex 4.4968557 1.5754005 3.2
      vertex 4.349715 1.5425106 3.2
    endloop
  endfacet
  facet normal 0 0 1
    outer loop
      vertex 0 0 3.2
      vertex 2.0507681 2.3701825 3.2
      vertex 1.9583592 2.4893155 3.2
    endloop
  endfacet
  facet normal 0 0 -1
    outer loop
      vertex 0 0 0
      vertex 1.5 1.5 0
      vertex 7.8 0 0
    endloop
  endfacet
  facet normal 0 -1 0
    outer loop
      vertex 0 0 3.2
      vertex 0 0 0
      vertex 7.8 0 3.2
    endloop
  endfacet
  facet normal 0 0 1
    outer loop
      vertex 0 0 3.2
      vertex 2.1504753 2.257087 3.2
      vertex 2.0507681 2.3701825 3.2
    endloop
  endfacet
  facet normal 0 0 1
    outer loop
      vertex 0 0 3.2
      vertex 1.7968639 2.743791 3.2
      vertex 1.7284151 2.8781297 3.2
    endloop
  endfacet
  facet normal 0 0 1
    outer loop
      vertex 0 0 3.2
      vertex 1.9583592 2.4893155 3.2
      vertex 1.873613 2.6140156 3.2
    endloop
  endfacet
  facet normal 0 0 1
    outer loop
      vertex 0 0 3.2
      vertex 1.873613 2.6140156 3.2
      vertex 1.7968639 2.743791 3.2
    endloop
  endfacet
  facet normal 1 0 0
    outer loop
      vertex 1.5 6.3 2.2
      vertex 1.5 1.5 0
      vertex 1.5 6.3 0
    endloop
  endfacet
  facet normal 0 -1 0
    outer loop
      vertex 1.5 6.3 2.2
      vertex 1.5 6.3 0
      vertex 6.3 6.3 2.2
    endloop
  endfacet
  facet normal 0 0 -1
    outer loop
      vertex 6.3 1.5 2.2
      vertex 1.5 6.3 2.2
      vertex 6.3 6.3 2.2
    endloop
  endfacet
  facet normal 0 -1 0
    outer loop
      vertex 6.3 6.3 2.2
      vertex 1.5 6.3 0
      vertex 6.3 6.3 0
    endloop
  endfacet
  facet normal -1 0 0
    outer loop
      vertex 6.3 6.3 0
      vertex 6.3 1.5 2.2
      vertex 6.3 6.3 2.2
    endloop
  endfacet
  facet normal 0 1 0
    outer loop
      vertex 6.3 1.5 0
      vertex 1.5 1.5 2.2
      vertex 6.3 1.5 2.2
    endloop
  endfacet
  facet normal 0 0 -1
    outer loop
      vertex 1.5 1.5 2.2
      vertex 1.5 6.3 2.2
      vertex 6.3 1.5 2.2
    endloop
  endfacet
  facet normal 0 1 0
    outer loop
      vertex 1.5 1.5 0
      vertex 1.5 1.5 2.2
      vertex 6.3 1.5 0
    endloop
  endfacet
  facet normal 1 0 0
    outer loop
      vertex 1.5 1.5 0
      vertex 1.5 6.3 2.2
      vertex 1.5 1.5 2.2
    endloop
  endfacet
  facet normal -1 0 0
    outer loop
      vertex 6.3 6.3 0
      vertex 6.3 1.5 0
      vertex 6.3 1.5 2.2
    endloop
  endfacet
  facet normal 0.99556196 -0.09410831 0
    outer loop
      vertex 6.2810755 3.5992002 4.8
      vertex 6.2810755 3.5992002 3.2
      vertex 6.2952642 3.7493029 4.8
    endloop
  endfacet
  facet normal 0.99950653 -0.031410757 0
    outer loop
      vertex 6.2952642 3.7493029 4.8
      vertex 6.2952642 3.7493029 3.2
      vertex 6.3 3.9 4.8
    endloop
  endfacet
  facet normal 0.98768836 -0.15643446 0
    outer loop
      vertex 6.257489 3.450285 4.8
      vertex 6.257489 3.450285 3.2
      vertex 6.2810755 3.5992002 4.8
    endloop
  endfacet
  facet normal 0 0 1
    outer loop
      vertex 5.841641 2.4893155 4.8
      vertex 5.926387 2.6140156 4.8
      vertex 5.841641 5.3106847 4.8
    endloop
  endfacet
  facet normal 0 0 1
    outer loop
      vertex 5.926387 2.6140156 4.8
      vertex 6.003136 2.743791 4.8
      vertex 5.926387 5.185984 4.8
    endloop
  endfacet
  facet normal 0.97591674 -0.21814324 0
    outer loop
      vertex 6.2245994 3.3031442 4.8
      vertex 6.2245994 3.3031442 3.2
      vertex 6.257489 3.450285 4.8
    endloop
  endfacet
  facet normal 0 0 1
    outer loop
      vertex 6.003136 2.743791 4.8
      vertex 6.0715847 2.8781297 4.8
      vertex 6.003136 5.0562086 4.8
    endloop
  endfacet
  facet normal 0 0 1
    outer loop
      vertex 6.0715847 2.8781297 4.8
      vertex 6.1314635 3.0165012 4.8
      vertex 6.0715847 4.92187 4.8
    endloop
  endfacet
  facet normal 0 0 1
    outer loop
      vertex 6.2810755 3.5992002 4.8
      vertex 6.2952642 3.7493029 4.8
      vertex 6.2810755 4.2008 4.8
    endloop
  endfacet
  facet normal 0 0 1
    outer loop
      vertex 6.1314635 3.0165012 4.8
      vertex 6.1825356 3.1583593 4.8
      vertex 6.1314635 4.783499 4.8
    endloop
  endfacet
  facet normal 0 0 1
    outer loop
      vertex 6.1825356 3.1583593 4.8
      vertex 6.2245994 3.3031442 4.8
      vertex 6.1825356 4.6416407 4.8
    endloop
  endfacet
  facet normal 0 0 1
    outer loop
      vertex 6.2245994 3.3031442 4.8
      vertex 6.257489 3.450285 4.8
      vertex 6.2245994 4.4968557 4.8
    endloop
  endfacet
  facet normal 0 0 1
    outer loop
      vertex 6.257489 3.450285 4.8
      vertex 6.2810755 3.5992002 4.8
      vertex 6.257489 4.349715 4.8
    endloop
  endfacet
  facet normal 0.9408808 -0.33873793 0
    outer loop
      vertex 6.1314635 3.0165012 4.8
      vertex 6.1314635 3.0165012 3.2
      vertex 6.1825356 3.1583593 4.8
    endloop
  endfacet
  facet normal -0.97591674 -0.21814324 0
    outer loop
      vertex 1.5754005 3.3031442 3.2
      vertex 1.5754005 3.3031442 4.8
      vertex 1.5425106 3.450285 3.2
    endloop
  endfacet
  facet normal -0.9408808 -0.33873793 0
    outer loop
      vertex 1.6685364 3.0165012 3.2
      vertex 1.6685364 3.0165012 4.8
      vertex 1.6174643 3.1583593 3.2
    endloop
  endfacet
  facet normal -0.8910065 -0.4539905 0
    outer loop
      vertex 1.7284151 2.8781297 4.8
      vertex 1.7284151 2.8781297 3.2
      vertex 1.7968639 2.743791 4.8
    endloop
  endfacet
  facet normal -0.86074203 -0.5090414 0
    outer loop
      vertex 1.7968639 2.743791 4.8
      vertex 1.7968639 2.743791 3.2
      vertex 1.873613 2.6140156 4.8
    endloop
  endfacet
  facet normal 0 0 1
    outer loop
      vertex 3.9 6.3 4.8
      vertex 4.0506973 1.5047358 4.8
      vertex 4.0506973 6.2952642 4.8
    endloop
  endfacet
  facet normal 0 0 1
    outer loop
      vertex 4.0506973 6.2952642 4.8
      vertex 4.2008 1.5189247 4.8
      vertex 4.2008 6.2810755 4.8
    endloop
  endfacet
  facet normal 0 0 1
    outer loop
      vertex 4.92187 1.7284151 4.8
      vertex 5.0562086 1.7968639 4.8
      vertex 4.92187 6.0715847 4.8
    endloop
  endfacet
  facet normal 0 0 1
    outer loop
      vertex 4.2008 6.2810755 4.8
      vertex 4.349715 1.5425106 4.8
      vertex 4.349715 6.257489 4.8
    endloop
  endfacet
  facet normal 0 0 1
    outer loop
      vertex 4.349715 6.257489 4.8
      vertex 4.4968557 1.5754005 4.8
      vertex 4.4968557 6.2245994 4.8
    endloop
  endfacet
  facet normal -0.9408808 -0.33873793 0
    outer loop
      vertex 1.6174643 3.1583593 4.8
      vertex 1.6174643 3.1583593 3.2
      vertex 1.6685364 3.0165012 4.8
    endloop
  endfacet
  facet normal 0.82708055 -0.56208336 0
    outer loop
      vertex 5.841641 2.4893155 4.8
      vertex 5.841641 2.4893155 3.2
      vertex 5.926387 2.6140156 4.8
    endloop
  endfacet
  facet normal 0.8910065 -0.4539905 0
    outer loop
      vertex 6.0715847 2.8781297 3.2
      vertex 6.0715847 2.8781297 4.8
      vertex 6.003136 2.743791 3.2
    endloop
  endfacet
  facet normal 0.86074203 -0.5090414 0
    outer loop
      vertex 6.003136 2.743791 3.2
      vertex 6.003136 2.743791 4.8
      vertex 5.926387 2.6140156 3.2
    endloop
  endfacet
  facet normal 0.82708055 -0.56208336 0
    outer loop
      vertex 5.926387 2.6140156 3.2
      vertex 5.926387 2.6140156 4.8
      vertex 5.841641 2.4893155 3.2
    endloop
  endfacet
  facet normal -0.9602937 -0.2789911 0
    outer loop
      vertex 1.6174643 3.1583593 3.2
      vertex 1.6174643 3.1583593 4.8
      vertex 1.5754005 3.3031442 3.2
    endloop
  endfacet
  facet normal -0.98768836 -0.15643446 0
    outer loop
      vertex 1.5425106 3.450285 3.2
      vertex 1.5425106 3.450285 4.8
      vertex 1.5189247 3.5992002 3.2
    endloop
  endfacet
  facet normal -0.99556196 -0.09410831 0
    outer loop
      vertex 1.5189247 3.5992002 3.2
      vertex 1.5189247 3.5992002 4.8
      vertex 1.5047358 3.7493029 3.2
    endloop
  endfacet
  facet normal -0.99950653 -0.031410757 0
    outer loop
      vertex 1.5047358 3.7493029 3.2
      vertex 1.5047358 3.7493029 4.8
      vertex 1.5 3.9 3.2
    endloop
  endfacet
  facet normal -0.91775465 -0.3971479 0
    outer loop
      vertex 1.6685364 3.0165012 4.8
      vertex 1.6685364 3.0165012 3.2
      vertex 1.7284151 2.8781297 4.8
    endloop
  endfacet
  facet normal 0.86074203 -0.5090414 0
    outer loop
      vertex 5.926387 2.6140156 4.8
      vertex 5.926387 2.6140156 3.2
      vertex 6.003136 2.743791 4.8
    endloop
  endfacet
  facet normal -0.97591674 -0.21814324 0
    outer loop
      vertex 1.5425106 3.450285 4.8
      vertex 1.5425106 3.450285 3.2
      vertex 1.5754005 3.3031442 4.8
    endloop
  endfacet
  facet normal -0.9602937 -0.2789911 0
    outer loop
      vertex 1.5754005 3.3031442 4.8
      vertex 1.5754005 3.3031442 3.2
      vertex 1.6174643 3.1583593 4.8
    endloop
  endfacet
  facet normal -0.98768836 -0.15643446 0
    outer loop
      vertex 1.5189247 3.5992002 4.8
      vertex 1.5189247 3.5992002 3.2
      vertex 1.5425106 3.450285 4.8
    endloop
  endfacet
  facet normal -0.99556196 -0.09410831 0
    outer loop
      vertex 1.5047358 3.7493029 4.8
      vertex 1.5047358 3.7493029 3.2
      vertex 1.5189247 3.5992002 4.8
    endloop
  endfacet
  facet normal -0.99950653 -0.031410757 0
    outer loop
      vertex 1.5 3.9 4.8
      vertex 1.5 3.9 3.2
      vertex 1.5047358 3.7493029 4.8
    endloop
  endfacet
  facet normal 0 0 1
    outer loop
      vertex 1.5754005 3.3031442 4.8
      vertex 1.6174643 3.1583593 4.8
      vertex 1.5754005 4.4968557 4.8
    endloop
  endfacet
  facet normal 0 0 1
    outer loop
      vertex 1.6174643 3.1583593 4.8
      vertex 1.6685364 3.0165012 4.8
      vertex 1.6174643 4.6416407 4.8
    endloop
  endfacet
  facet normal 0 0 1
    outer loop
      vertex 1.6685364 3.0165012 4.8
      vertex 1.7284151 2.8781297 4.8
      vertex 1.6685364 4.783499 4.8
    endloop
  endfacet
  facet normal 0 0 1
    outer loop
      vertex 5.0562086 1.7968639 4.8
      vertex 5.185984 1.873613 4.8
      vertex 5.0562086 6.003136 4.8
    endloop
  endfacet
  facet normal 0 0 1
    outer loop
      vertex 1.5425106 3.450285 4.8
      vertex 1.5754005 3.3031442 4.8
      vertex 1.5425106 4.349715 4.8
    endloop
  endfacet
  facet normal 0.99950653 -0.031410757 0
    outer loop
      vertex 6.3 3.9 3.2
      vertex 6.3 3.9 4.8
      vertex 6.2952642 3.7493029 3.2
    endloop
  endfacet
  facet normal 0.99556196 -0.09410831 0
    outer loop
      vertex 6.2952642 3.7493029 3.2
      vertex 6.2952642 3.7493029 4.8
      vertex 6.2810755 3.5992002 3.2
    endloop
  endfacet
  facet normal 0.98768836 -0.15643446 0
    outer loop
      vertex 6.2810755 3.5992002 3.2
      vertex 6.2810755 3.5992002 4.8
      vertex 6.257489 3.450285 3.2
    endloop
  endfacet
  facet normal 0.97591674 -0.21814324 0
    outer loop
      vertex 6.257489 3.450285 3.2
      vertex 6.257489 3.450285 4.8
      vertex 6.2245994 3.3031442 3.2
    endloop
  endfacet
  facet normal 0.9602937 -0.2789911 0
    outer loop
      vertex 6.2245994 3.3031442 3.2
      vertex 6.2245994 3.3031442 4.8
      vertex 6.1825356 3.1583593 3.2
    endloop
  endfacet
  facet normal 0.9408808 -0.33873793 0
    outer loop
      vertex 6.1825356 3.1583593 3.2
      vertex 6.1825356 3.1583593 4.8
      vertex 6.1314635 3.0165012 3.2
    endloop
  endfacet
  facet normal 0.91775465 -0.3971479 0
    outer loop
      vertex 6.1314635 3.0165012 3.2
      vertex 6.1314635 3.0165012 4.8
      vertex 6.0715847 2.8781297 3.2
    endloop
  endfacet
  facet normal 0.66131186 -0.75011104 0
    outer loop
      vertex 5.542913 2.1504753 3.2
      vertex 5.542913 2.1504753 4.8
      vertex 5.4298177 2.0507681 3.2
    endloop
  endfacet
  facet normal 0.9602937 -0.2789911 0
    outer loop
      vertex 6.1825356 3.1583593 4.8
      vertex 6.1825356 3.1583593 3.2
      vertex 6.2245994 3.3031442 4.8
    endloop
  endfacet
  facet normal 0 0 1
    outer loop
      vertex 5.185984 1.873613 4.8
      vertex 5.3106847 1.9583592 4.8
      vertex 5.185984 5.926387 4.8
    endloop
  endfacet
  facet normal 0 0 1
    outer loop
      vertex 5.3106847 1.9583592 4.8
      vertex 5.4298177 2.0507681 4.8
      vertex 5.3106847 5.841641 4.8
    endloop
  endfacet
  facet normal 0 0 1
    outer loop
      vertex 5.4298177 2.0507681 4.8
      vertex 5.542913 2.1504753 4.8
      vertex 5.4298177 5.749232 4.8
    endloop
  endfacet
  facet normal 0 0 1
    outer loop
      vertex 5.542913 2.1504753 4.8
      vertex 5.6495247 2.257087 4.8
      vertex 5.542913 5.6495247 4.8
    endloop
  endfacet
  facet normal 0 0 1
    outer loop
      vertex 5.6495247 2.257087 4.8
      vertex 5.749232 2.3701825 4.8
      vertex 5.6495247 5.542913 4.8
    endloop
  endfacet
  facet normal 0 0 1
    outer loop
      vertex 5.749232 2.3701825 4.8
      vertex 5.841641 2.4893155 4.8
      vertex 5.749232 5.4298177 4.8
    endloop
  endfacet
  facet normal 0.91775465 -0.3971479 0
    outer loop
      vertex 6.0715847 2.8781297 4.8
      vertex 6.0715847 2.8781297 3.2
      vertex 6.1314635 3.0165012 4.8
    endloop
  endfacet
  facet normal 0.8910065 -0.4539905 0
    outer loop
      vertex 6.003136 2.743791 4.8
      vertex 6.003136 2.743791 3.2
      vertex 6.0715847 2.8781297 4.8
    endloop
  endfacet
  facet normal 0.99556196 0.09410831 0
    outer loop
      vertex 6.2810755 4.2008 3.2
      vertex 6.2810755 4.2008 4.8
      vertex 6.2952642 4.0506973 3.2
    endloop
  endfacet
  facet normal 0 0 1
    outer loop
      vertex 5.926387 5.185984 4.8
      vertex 6.003136 2.743791 4.8
      vertex 6.003136 5.0562086 4.8
    endloop
  endfacet
  facet normal 0 0 1
    outer loop
      vertex 5.841641 5.3106847 4.8
      vertex 5.926387 2.6140156 4.8
      vertex 5.926387 5.185984 4.8
    endloop
  endfacet
  facet normal 0.98768836 0.15643446 0
    outer loop
      vertex 6.2810755 4.2008 4.8
      vertex 6.2810755 4.2008 3.2
      vertex 6.257489 4.349715 4.8
    endloop
  endfacet
  facet normal 0.99556196 0.09410831 0
    outer loop
      vertex 6.2952642 4.0506973 4.8
      vertex 6.2952642 4.0506973 3.2
      vertex 6.2810755 4.2008 4.8
    endloop
  endfacet
  facet normal 0.99950653 0.031410757 0
    outer loop
      vertex 6.3 3.9 4.8
      vertex 6.3 3.9 3.2
      vertex 6.2952642 4.0506973 4.8
    endloop
  endfacet
  facet normal 0.9408808 0.33873793 0
    outer loop
      vertex 6.1314635 4.783499 3.2
      vertex 6.1314635 4.783499 4.8
      vertex 6.1825356 4.6416407 3.2
    endloop
  endfacet
  facet normal 0.97591674 0.21814324 0
    outer loop
      vertex 6.2245994 4.4968557 3.2
      vertex 6.2245994 4.4968557 4.8
      vertex 6.257489 4.349715 3.2
    endloop
  endfacet
  facet normal 0.9602937 0.2789911 0
    outer loop
      vertex 6.1825356 4.6416407 3.2
      vertex 6.1825356 4.6416407 4.8
      vertex 6.2245994 4.4968557 3.2
    endloop
  endfacet
  facet normal 0.98768836 0.15643446 0
    outer loop
      vertex 6.257489 4.349715 3.2
      vertex 6.257489 4.349715 4.8
      vertex 6.2810755 4.2008 3.2
    endloop
  endfacet
  facet normal 0 0 1
    outer loop
      vertex 6.003136 5.0562086 4.8
      vertex 6.0715847 2.8781297 4.8
      vertex 6.0715847 4.92187 4.8
    endloop
  endfacet
  facet normal 0.99950653 0.031410757 0
    outer loop
      vertex 6.2952642 4.0506973 3.2
      vertex 6.2952642 4.0506973 4.8
      vertex 6.3 3.9 3.2
    endloop
  endfacet
  facet normal -0.82708055 -0.56208336 0
    outer loop
      vertex 1.9583592 2.4893155 3.2
      vertex 1.9583592 2.4893155 4.8
      vertex 1.873613 2.6140156 3.2
    endloop
  endfacet
  facet normal 0.56208336 0.82708055 0
    outer loop
      vertex 5.3106847 5.841641 3.2
      vertex 5.185984 5.926387 4.8
      vertex 5.3106847 5.841641 4.8
    endloop
  endfacet
  facet normal 0.5090414 0.86074203 0
    outer loop
      vertex 5.185984 5.926387 3.2
      vertex 5.0562086 6.003136 4.8
      vertex 5.185984 5.926387 4.8
    endloop
  endfacet
  facet normal 0.4539905 0.8910065 0
    outer loop
      vertex 5.0562086 6.003136 3.2
      vertex 4.92187 6.0715847 4.8
      vertex 5.0562086 6.003136 4.8
    endloop
  endfacet
  facet normal 0.3971479 0.91775465 0
    outer loop
      vertex 4.92187 6.0715847 3.2
      vertex 4.783499 6.1314635 4.8
      vertex 4.92187 6.0715847 4.8
    endloop
  endfacet
  facet normal 0.56208336 0.82708055 0
    outer loop
      vertex 5.185984 5.926387 3.2
      vertex 5.185984 5.926387 4.8
      vertex 5.3106847 5.841641 3.2
    endloop
  endfacet
  facet normal 0.5090414 0.86074203 0
    outer loop
      vertex 5.0562086 6.003136 3.2
      vertex 5.0562086 6.003136 4.8
      vertex 5.185984 5.926387 3.2
    endloop
  endfacet
  facet normal 0.97591674 0.21814324 0
    outer loop
      vertex 6.257489 4.349715 4.8
      vertex 6.257489 4.349715 3.2
      vertex 6.2245994 4.4968557 4.8
    endloop
  endfacet
  facet normal 0.82708055 0.56208336 0
    outer loop
      vertex 5.926387 5.185984 4.8
      vertex 5.926387 5.185984 3.2
      vertex 5.841641 5.3106847 4.8
    endloop
  endfacet
  facet normal 0.86074203 0.5090414 0
    outer loop
      vertex 6.003136 5.0562086 4.8
      vertex 6.003136 5.0562086 3.2
      vertex 5.926387 5.185984 4.8
    endloop
  endfacet
  facet normal 0.8910065 0.4539905 0
    outer loop
      vertex 6.0715847 4.92187 4.8
      vertex 6.0715847 4.92187 3.2
      vertex 6.003136 5.0562086 4.8
    endloop
  endfacet
  facet normal 0.82708055 0.56208336 0
    outer loop
      vertex 5.841641 5.3106847 3.2
      vertex 5.841641 5.3106847 4.8
      vertex 5.926387 5.185984 3.2
    endloop
  endfacet
  facet normal 0.86074203 0.5090414 0
    outer loop
      vertex 5.926387 5.185984 3.2
      vertex 5.926387 5.185984 4.8
      vertex 6.003136 5.0562086 3.2
    endloop
  endfacet
  facet normal 0.8910065 0.4539905 0
    outer loop
      vertex 6.003136 5.0562086 3.2
      vertex 6.003136 5.0562086 4.8
      vertex 6.0715847 4.92187 3.2
    endloop
  endfacet
  facet normal 0.91775465 0.3971479 0
    outer loop
      vertex 6.0715847 4.92187 3.2
      vertex 6.0715847 4.92187 4.8
      vertex 6.1314635 4.783499 3.2
    endloop
  endfacet
  facet normal 0.91775465 0.3971479 0
    outer loop
      vertex 6.1314635 4.783499 4.8
      vertex 6.1314635 4.783499 3.2
      vertex 6.0715847 4.92187 4.8
    endloop
  endfacet
  facet normal 0.9408808 0.33873793 0
    outer loop
      vertex 6.1825356 4.6416407 4.8
      vertex 6.1825356 4.6416407 3.2
      vertex 6.1314635 4.783499 4.8
    endloop
  endfacet
  facet normal 0.4539905 0.8910065 0
    outer loop
      vertex 4.92187 6.0715847 3.2
      vertex 4.92187 6.0715847 4.8
      vertex 5.0562086 6.003136 3.2
    endloop
  endfacet
  facet normal 0.9602937 0.2789911 0
    outer loop
      vertex 6.2245994 4.4968557 4.8
      vertex 6.2245994 4.4968557 3.2
      vertex 6.1825356 4.6416407 4.8
    endloop
  endfacet
  facet normal 0 0 1
    outer loop
      vertex 6.1825356 4.6416407 4.8
      vertex 6.2245994 3.3031442 4.8
      vertex 6.2245994 4.4968557 4.8
    endloop
  endfacet
  facet normal 0 0 1
    outer loop
      vertex 6.1314635 4.783499 4.8
      vertex 6.1825356 3.1583593 4.8
      vertex 6.1825356 4.6416407 4.8
    endloop
  endfacet
  facet normal 0 0 1
    outer loop
      vertex 6.0715847 4.92187 4.8
      vertex 6.1314635 3.0165012 4.8
      vertex 6.1314635 4.783499 4.8
    endloop
  endfacet
  facet normal 0 0 1
    outer loop
      vertex 6.2245994 4.4968557 4.8
      vertex 6.257489 3.450285 4.8
      vertex 6.257489 4.349715 4.8
    endloop
  endfacet
  facet normal 0 0 1
    outer loop
      vertex 6.257489 4.349715 4.8
      vertex 6.2810755 3.5992002 4.8
      vertex 6.2810755 4.2008 4.8
    endloop
  endfacet
  facet normal 0 0 1
    outer loop
      vertex 6.2810755 4.2008 4.8
      vertex 6.2952642 3.7493029 4.8
      vertex 6.2952642 4.0506973 4.8
    endloop
  endfacet
  facet normal 0 0 1
    outer loop
      vertex 6.2952642 3.7493029 4.8
      vertex 6.3 3.9 4.8
      vertex 6.2952642 4.0506973 4.8
    endloop
  endfacet
  facet normal 0 0 1
    outer loop
      vertex 5.6495247 5.542913 4.8
      vertex 5.749232 2.3701825 4.8
      vertex 5.749232 5.4298177 4.8
    endloop
  endfacet
  facet normal 0.66131186 0.75011104 0
    outer loop
      vertex 5.542913 5.6495247 3.2
      vertex 5.4298177 5.749232 4.8
      vertex 5.542913 5.6495247 4.8
    endloop
  endfacet
  facet normal 0.61290705 0.790155 0
    outer loop
      vertex 5.4298177 5.749232 3.2
      vertex 5.3106847 5.841641 4.8
      vertex 5.4298177 5.749232 4.8
    endloop
  endfacet
  facet normal 0.790155 0.61290705 0
    outer loop
      vertex 5.841641 5.3106847 4.8
      vertex 5.841641 5.3106847 3.2
      vertex 5.749232 5.4298177 4.8
    endloop
  endfacet
  facet normal 0.790155 0.61290705 0
    outer loop
      vertex 5.749232 5.4298177 3.2
      vertex 5.749232 5.4298177 4.8
      vertex 5.841641 5.3106847 3.2
    endloop
  endfacet
  facet normal 0.75011104 0.66131186 0
    outer loop
      vertex 5.6495247 5.542913 3.2
      vertex 5.6495247 5.542913 4.8
      vertex 5.749232 5.4298177 3.2
    endloop
  endfacet
  facet normal 0.70710677 0.70710677 0
    outer loop
      vertex 5.542913 5.6495247 3.2
      vertex 5.542913 5.6495247 4.8
      vertex 5.6495247 5.542913 3.2
    endloop
  endfacet
  facet normal 0.66131186 0.75011104 0
    outer loop
      vertex 5.4298177 5.749232 3.2
      vertex 5.4298177 5.749232 4.8
      vertex 5.542913 5.6495247 3.2
    endloop
  endfacet
  facet normal 0.61290705 0.790155 0
    outer loop
      vertex 5.3106847 5.841641 3.2
      vertex 5.3106847 5.841641 4.8
      vertex 5.4298177 5.749232 3.2
    endloop
  endfacet
  facet normal 0 0 1
    outer loop
      vertex 5.749232 5.4298177 4.8
      vertex 5.841641 2.4893155 4.8
      vertex 5.841641 5.3106847 4.8
    endloop
  endfacet
  facet normal 0.75011104 0.66131186 0
    outer loop
      vertex 5.749232 5.4298177 4.8
      vertex 5.749232 5.4298177 3.2
      vertex 5.6495247 5.542913 4.8
    endloop
  endfacet
  facet normal 0 0 1
    outer loop
      vertex 5.542913 5.6495247 4.8
      vertex 5.6495247 2.257087 4.8
      vertex 5.6495247 5.542913 4.8
    endloop
  endfacet
  facet normal 0 0 1
    outer loop
      vertex 5.4298177 5.749232 4.8
      vertex 5.542913 2.1504753 4.8
      vertex 5.542913 5.6495247 4.8
    endloop
  endfacet
  facet normal 0 0 1
    outer loop
      vertex 5.3106847 5.841641 4.8
      vertex 5.4298177 2.0507681 4.8
      vertex 5.4298177 5.749232 4.8
    endloop
  endfacet
  facet normal 0 0 1
    outer loop
      vertex 5.185984 5.926387 4.8
      vertex 5.3106847 1.9583592 4.8
      vertex 5.3106847 5.841641 4.8
    endloop
  endfacet
  facet normal 0 0 1
    outer loop
      vertex 5.0562086 6.003136 4.8
      vertex 5.185984 1.873613 4.8
      vertex 5.185984 5.926387 4.8
    endloop
  endfacet
  facet normal 0 0 1
    outer loop
      vertex 4.783499 6.1314635 4.8
      vertex 4.92187 1.7284151 4.8
      vertex 4.92187 6.0715847 4.8
    endloop
  endfacet
  facet normal 0 0 1
    outer loop
      vertex 4.92187 6.0715847 4.8
      vertex 5.0562086 1.7968639 4.8
      vertex 5.0562086 6.003136 4.8
    endloop
  endfacet
  facet normal 0 0 1
    outer loop
      vertex 4.6416407 6.1825356 4.8
      vertex 4.783499 1.6685364 4.8
      vertex 4.783499 6.1314635 4.8
    endloop
  endfacet
  facet normal 0.21814324 0.97591674 0
    outer loop
      vertex 4.349715 6.257489 3.2
      vertex 4.349715 6.257489 4.8
      vertex 4.4968557 6.2245994 3.2
    endloop
  endfacet
  facet normal 0.33873793 0.9408808 0
    outer loop
      vertex 4.783499 6.1314635 3.2
      vertex 4.6416407 6.1825356 4.8
      vertex 4.783499 6.1314635 4.8
    endloop
  endfacet
  facet normal 0.2789911 0.9602937 0
    outer loop
      vertex 4.6416407 6.1825356 3.2
      vertex 4.4968557 6.2245994 4.8
      vertex 4.6416407 6.1825356 4.8
    endloop
  endfacet
  facet normal 0.21814324 0.97591674 0
    outer loop
      vertex 4.4968557 6.2245994 3.2
      vertex 4.349715 6.257489 4.8
      vertex 4.4968557 6.2245994 4.8
    endloop
  endfacet
  facet normal 0.15643446 0.98768836 0
    outer loop
      vertex 4.349715 6.257489 3.2
      vertex 4.2008 6.2810755 4.8
      vertex 4.349715 6.257489 4.8
    endloop
  endfacet
  facet normal 0.09410831 0.99556196 0
    outer loop
      vertex 4.2008 6.2810755 3.2
      vertex 4.0506973 6.2952642 4.8
      vertex 4.2008 6.2810755 4.8
    endloop
  endfacet
  facet normal 0.031410757 0.99950653 0
    outer loop
      vertex 4.0506973 6.2952642 3.2
      vertex 3.9 6.3 4.8
      vertex 4.0506973 6.2952642 4.8
    endloop
  endfacet
  facet normal 0.3971479 0.91775465 0
    outer loop
      vertex 4.783499 6.1314635 3.2
      vertex 4.783499 6.1314635 4.8
      vertex 4.92187 6.0715847 3.2
    endloop
  endfacet
  facet normal 0.33873793 0.9408808 0
    outer loop
      vertex 4.6416407 6.1825356 3.2
      vertex 4.6416407 6.1825356 4.8
      vertex 4.783499 6.1314635 3.2
    endloop
  endfacet
  facet normal 0.2789911 0.9602937 0
    outer loop
      vertex 4.4968557 6.2245994 3.2
      vertex 4.4968557 6.2245994 4.8
      vertex 4.6416407 6.1825356 3.2
    endloop
  endfacet
  facet normal 0 0 1
    outer loop
      vertex 4.4968557 6.2245994 4.8
      vertex 4.6416407 1.6174643 4.8
      vertex 4.6416407 6.1825356 4.8
    endloop
  endfacet
  facet normal 0.15643446 0.98768836 0
    outer loop
      vertex 4.2008 6.2810755 3.2
      vertex 4.2008 6.2810755 4.8
      vertex 4.349715 6.257489 3.2
    endloop
  endfacet
  facet normal 0.09410831 0.99556196 0
    outer loop
      vertex 4.0506973 6.2952642 3.2
      vertex 4.0506973 6.2952642 4.8
      vertex 4.2008 6.2810755 3.2
    endloop
  endfacet
  facet normal 0.031410757 0.99950653 0
    outer loop
      vertex 3.9 6.3 3.2
      vertex 3.9 6.3 4.8
      vertex 4.0506973 6.2952642 3.2
    endloop
  endfacet
  facet normal -0.86074203 -0.5090414 0
    outer loop
      vertex 1.873613 2.6140156 3.2
      vertex 1.873613 2.6140156 4.8
      vertex 1.7968639 2.743791 3.2
    endloop
  endfacet
  facet normal -0.8910065 -0.4539905 0
    outer loop
      vertex 1.7968639 2.743791 3.2
      vertex 1.7968639 2.743791 4.8
      vertex 1.7284151 2.8781297 3.2
    endloop
  endfacet
  facet normal -0.91775465 -0.3971479 0
    outer loop
      vertex 1.7284151 2.8781297 3.2
      vertex 1.7284151 2.8781297 4.8
      vertex 1.6685364 3.0165012 3.2
    endloop
  endfacet
  facet normal -0.82708055 -0.56208336 0
    outer loop
      vertex 1.873613 2.6140156 4.8
      vertex 1.873613 2.6140156 3.2
      vertex 1.9583592 2.4893155 4.8
    endloop
  endfacet
  facet normal 0.70710677 0.70710677 0
    outer loop
      vertex 5.6495247 5.542913 4.8
      vertex 5.6495247 5.542913 3.2
      vertex 5.542913 5.6495247 4.8
    endloop
  endfacet
  facet normal 0 0 1
    outer loop
      vertex 1.873613 5.185984 4.8
      vertex 1.9583592 2.4893155 4.8
      vertex 1.9583592 5.3106847 4.8
    endloop
  endfacet
  facet normal -0.82708055 0.56208336 0
    outer loop
      vertex 1.9583592 5.3106847 4.8
      vertex 1.9583592 5.3106847 3.2
      vertex 1.873613 5.185984 4.8
    endloop
  endfacet
  facet normal -0.86074203 0.5090414 0
    outer loop
      vertex 1.873613 5.185984 4.8
      vertex 1.873613 5.185984 3.2
      vertex 1.7968639 5.0562086 4.8
    endloop
  endfacet
  facet normal -0.8910065 0.4539905 0
    outer loop
      vertex 1.7968639 5.0562086 4.8
      vertex 1.7968639 5.0562086 3.2
      vertex 1.7284151 4.92187 4.8
    endloop
  endfacet
  facet normal -0.91775465 0.3971479 0
    outer loop
      vertex 1.7284151 4.92187 4.8
      vertex 1.7284151 4.92187 3.2
      vertex 1.6685364 4.783499 4.8
    endloop
  endfacet
  facet normal -0.82708055 0.56208336 0
    outer loop
      vertex 1.873613 5.185984 3.2
      vertex 1.873613 5.185984 4.8
      vertex 1.9583592 5.3106847 3.2
    endloop
  endfacet
  facet normal -0.86074203 0.5090414 0
    outer loop
      vertex 1.7968639 5.0562086 3.2
      vertex 1.7968639 5.0562086 4.8
      vertex 1.873613 5.185984 3.2
    endloop
  endfacet
  facet normal -0.8910065 0.4539905 0
    outer loop
      vertex 1.7284151 4.92187 3.2
      vertex 1.7284151 4.92187 4.8
      vertex 1.7968639 5.0562086 3.2
    endloop
  endfacet
  facet normal -0.9408808 0.33873793 0
    outer loop
      vertex 1.6685364 4.783499 4.8
      vertex 1.6685364 4.783499 3.2
      vertex 1.6174643 4.6416407 4.8
    endloop
  endfacet
  facet normal -0.9602937 0.2789911 0
    outer loop
      vertex 1.6174643 4.6416407 4.8
      vertex 1.6174643 4.6416407 3.2
      vertex 1.5754005 4.4968557 4.8
    endloop
  endfacet
  facet normal -0.97591674 0.21814324 0
    outer loop
      vertex 1.5754005 4.4968557 4.8
      vertex 1.5754005 4.4968557 3.2
      vertex 1.5425106 4.349715 4.8
    endloop
  endfacet
  facet normal -0.031410757 -0.99950653 0
    outer loop
      vertex 3.9 1.5 3.2
      vertex 3.9 1.5 4.8
      vertex 3.7493029 1.5047358 3.2
    endloop
  endfacet
  facet normal 0 0 1
    outer loop
      vertex 1.7968639 5.0562086 4.8
      vertex 1.873613 2.6140156 4.8
      vertex 1.873613 5.185984 4.8
    endloop
  endfacet
  facet normal 0 0 1
    outer loop
      vertex 1.7284151 4.92187 4.8
      vertex 1.7968639 2.743791 4.8
      vertex 1.7968639 5.0562086 4.8
    endloop
  endfacet
  facet normal 0 0 1
    outer loop
      vertex 1.6685364 4.783499 4.8
      vertex 1.7284151 2.8781297 4.8
      vertex 1.7284151 4.92187 4.8
    endloop
  endfacet
  facet normal 0 0 1
    outer loop
      vertex 1.6174643 4.6416407 4.8
      vertex 1.6685364 3.0165012 4.8
      vertex 1.6685364 4.783499 4.8
    endloop
  endfacet
  facet normal 0 0 1
    outer loop
      vertex 1.5754005 4.4968557 4.8
      vertex 1.6174643 3.1583593 4.8
      vertex 1.6174643 4.6416407 4.8
    endloop
  endfacet
  facet normal 0 0 1
    outer loop
      vertex 1.5425106 4.349715 4.8
      vertex 1.5754005 3.3031442 4.8
      vertex 1.5754005 4.4968557 4.8
    endloop
  endfacet
  facet normal 0 0 1
    outer loop
      vertex 1.5189247 4.2008 4.8
      vertex 1.5425106 3.450285 4.8
      vertex 1.5425106 4.349715 4.8
    endloop
  endfacet
  facet normal 0 0 1
    outer loop
      vertex 1.5047358 4.0506973 4.8
      vertex 1.5189247 3.5992002 4.8
      vertex 1.5189247 4.2008 4.8
    endloop
  endfacet
  facet normal 0 0 1
    outer loop
      vertex 1.5 3.9 4.8
      vertex 1.5047358 3.7493029 4.8
      vertex 1.5047358 4.0506973 4.8
    endloop
  endfacet
  facet normal -0.56208336 -0.82708055 0
    outer loop
      vertex 2.4893155 1.9583592 3.2
      vertex 2.6140156 1.873613 4.8
      vertex 2.4893155 1.9583592 4.8
    endloop
  endfacet
  facet normal -0.790155 0.61290705 0
    outer loop
      vertex 1.9583592 5.3106847 3.2
      vertex 1.9583592 5.3106847 4.8
      vertex 2.0507681 5.4298177 3.2
    endloop
  endfacet
  facet normal 0 0 1
    outer loop
      vertex 2.743791 6.003136 4.8
      vertex 2.8781297 1.7284151 4.8
      vertex 2.8781297 6.0715847 4.8
    endloop
  endfacet
  facet normal 0 0 1
    outer loop
      vertex 2.6140156 5.926387 4.8
      vertex 2.743791 1.7968639 4.8
      vertex 2.743791 6.003136 4.8
    endloop
  endfacet
  facet normal 0 0 1
    outer loop
      vertex 2.4893155 5.841641 4.8
      vertex 2.6140156 1.873613 4.8
      vertex 2.6140156 5.926387 4.8
    endloop
  endfacet
  facet normal 0 0 1
    outer loop
      vertex 2.3701825 5.749232 4.8
      vertex 2.4893155 1.9583592 4.8
      vertex 2.4893155 5.841641 4.8
    endloop
  endfacet
  facet normal 0 0 1
    outer loop
      vertex 2.257087 5.6495247 4.8
      vertex 2.3701825 2.0507681 4.8
      vertex 2.3701825 5.749232 4.8
    endloop
  endfacet
  facet normal 0 0 1
    outer loop
      vertex 2.1504753 5.542913 4.8
      vertex 2.257087 2.1504753 4.8
      vertex 2.257087 5.6495247 4.8
    endloop
  endfacet
  facet normal 0 0 1
    outer loop
      vertex 2.0507681 5.4298177 4.8
      vertex 2.1504753 2.257087 4.8
      vertex 2.1504753 5.542913 4.8
    endloop
  endfacet
  facet normal 0 0 1
    outer loop
      vertex 1.9583592 5.3106847 4.8
      vertex 2.0507681 2.3701825 4.8
      vertex 2.0507681 5.4298177 4.8
    endloop
  endfacet
  facet normal -0.98768836 0.15643446 0
    outer loop
      vertex 1.5425106 4.349715 4.8
      vertex 1.5425106 4.349715 3.2
      vertex 1.5189247 4.2008 4.8
    endloop
  endfacet
  facet normal -0.5090414 -0.86074203 0
    outer loop
      vertex 2.6140156 1.873613 3.2
      vertex 2.743791 1.7968639 4.8
      vertex 2.6140156 1.873613 4.8
    endloop
  endfacet
  facet normal -0.4539905 -0.8910065 0
    outer loop
      vertex 2.743791 1.7968639 3.2
      vertex 2.8781297 1.7284151 4.8
      vertex 2.743791 1.7968639 4.8
    endloop
  endfacet
  facet normal -0.3971479 -0.91775465 0
    outer loop
      vertex 2.8781297 1.7284151 3.2
      vertex 3.0165012 1.6685364 4.8
      vertex 2.8781297 1.7284151 4.8
    endloop
  endfacet
  facet normal -0.3971479 -0.91775465 0
    outer loop
      vertex 3.0165012 1.6685364 3.2
      vertex 3.0165012 1.6685364 4.8
      vertex 2.8781297 1.7284151 3.2
    endloop
  endfacet
  facet normal -0.33873793 -0.9408808 0
    outer loop
      vertex 3.1583593 1.6174643 3.2
      vertex 3.1583593 1.6174643 4.8
      vertex 3.0165012 1.6685364 3.2
    endloop
  endfacet
  facet normal -0.2789911 -0.9602937 0
    outer loop
      vertex 3.3031442 1.5754005 3.2
      vertex 3.3031442 1.5754005 4.8
      vertex 3.1583593 1.6174643 3.2
    endloop
  endfacet
  facet normal -0.21814324 -0.97591674 0
    outer loop
      vertex 3.450285 1.5425106 3.2
      vertex 3.450285 1.5425106 4.8
      vertex 3.3031442 1.5754005 3.2
    endloop
  endfacet
  facet normal -0.15643446 -0.98768836 0
    outer loop
      vertex 3.5992002 1.5189247 3.2
      vertex 3.5992002 1.5189247 4.8
      vertex 3.450285 1.5425106 3.2
    endloop
  endfacet
  facet normal -0.09410831 -0.99556196 0
    outer loop
      vertex 3.7493029 1.5047358 3.2
      vertex 3.7493029 1.5047358 4.8
      vertex 3.5992002 1.5189247 3.2
    endloop
  endfacet
  facet normal 0 0 1
    outer loop
      vertex 3.0165012 1.6685364 4.8
      vertex 3.1583593 1.6174643 4.8
      vertex 3.0165012 6.1314635 4.8
    endloop
  endfacet
  facet normal -0.70710677 -0.70710677 0
    outer loop
      vertex 2.1504753 2.257087 4.8
      vertex 2.1504753 2.257087 3.2
      vertex 2.257087 2.1504753 4.8
    endloop
  endfacet
  facet normal -0.75011104 -0.66131186 0
    outer loop
      vertex 2.0507681 2.3701825 4.8
      vertex 2.0507681 2.3701825 3.2
      vertex 2.1504753 2.257087 4.8
    endloop
  endfacet
  facet normal -0.66131186 -0.75011104 0
    outer loop
      vertex 2.257087 2.1504753 3.2
      vertex 2.3701825 2.0507681 4.8
      vertex 2.257087 2.1504753 4.8
    endloop
  endfacet
  facet normal -0.61290705 -0.790155 0
    outer loop
      vertex 2.3701825 2.0507681 3.2
      vertex 2.4893155 1.9583592 4.8
      vertex 2.3701825 2.0507681 4.8
    endloop
  endfacet
  facet normal 0 0 1
    outer loop
      vertex 3.7493029 1.5047358 4.8
      vertex 3.9 1.5 4.8
      vertex 3.7493029 6.2952642 4.8
    endloop
  endfacet
  facet normal 0 0 1
    outer loop
      vertex 3.5992002 1.5189247 4.8
      vertex 3.7493029 1.5047358 4.8
      vertex 3.5992002 6.2810755 4.8
    endloop
  endfacet
  facet normal 0 0 1
    outer loop
      vertex 3.450285 1.5425106 4.8
      vertex 3.5992002 1.5189247 4.8
      vertex 3.450285 6.257489 4.8
    endloop
  endfacet
  facet normal 0 0 1
    outer loop
      vertex 3.3031442 1.5754005 4.8
      vertex 3.450285 1.5425106 4.8
      vertex 3.3031442 6.2245994 4.8
    endloop
  endfacet
  facet normal 0 0 1
    outer loop
      vertex 3.1583593 1.6174643 4.8
      vertex 3.3031442 1.5754005 4.8
      vertex 3.1583593 6.1825356 4.8
    endloop
  endfacet
  facet normal -0.61290705 -0.790155 0
    outer loop
      vertex 2.4893155 1.9583592 3.2
      vertex 2.4893155 1.9583592 4.8
      vertex 2.3701825 2.0507681 3.2
    endloop
  endfacet
  facet normal 0 0 1
    outer loop
      vertex 2.743791 1.7968639 4.8
      vertex 2.8781297 1.7284151 4.8
      vertex 2.743791 6.003136 4.8
    endloop
  endfacet
  facet normal 0 0 1
    outer loop
      vertex 2.8781297 1.7284151 4.8
      vertex 3.0165012 1.6685364 4.8
      vertex 2.8781297 6.0715847 4.8
    endloop
  endfacet
  facet normal 0 0 1
    outer loop
      vertex 2.6140156 1.873613 4.8
      vertex 2.743791 1.7968639 4.8
      vertex 2.6140156 5.926387 4.8
    endloop
  endfacet
  facet normal 0 0 1
    outer loop
      vertex 2.4893155 1.9583592 4.8
      vertex 2.6140156 1.873613 4.8
      vertex 2.4893155 5.841641 4.8
    endloop
  endfacet
  facet normal 0 0 1
    outer loop
      vertex 2.3701825 2.0507681 4.8
      vertex 2.4893155 1.9583592 4.8
      vertex 2.3701825 5.749232 4.8
    endloop
  endfacet
  facet normal 0 0 1
    outer loop
      vertex 2.257087 2.1504753 4.8
      vertex 2.3701825 2.0507681 4.8
      vertex 2.257087 5.6495247 4.8
    endloop
  endfacet
  facet normal 0 0 1
    outer loop
      vertex 2.1504753 2.257087 4.8
      vertex 2.257087 2.1504753 4.8
      vertex 2.1504753 5.542913 4.8
    endloop
  endfacet
  facet normal 0 0 1
    outer loop
      vertex 2.0507681 2.3701825 4.8
      vertex 2.1504753 2.257087 4.8
      vertex 2.0507681 5.4298177 4.8
    endloop
  endfacet
  facet normal 0 0 1
    outer loop
      vertex 1.9583592 2.4893155 4.8
      vertex 2.0507681 2.3701825 4.8
      vertex 1.9583592 5.3106847 4.8
    endloop
  endfacet
  facet normal -0.33873793 -0.9408808 0
    outer loop
      vertex 3.0165012 1.6685364 3.2
      vertex 3.1583593 1.6174643 4.8
      vertex 3.0165012 1.6685364 4.8
    endloop
  endfacet
  facet normal -0.99556196 0.09410831 0
    outer loop
      vertex 1.5189247 4.2008 4.8
      vertex 1.5189247 4.2008 3.2
      vertex 1.5047358 4.0506973 4.8
    endloop
  endfacet
  facet normal -0.99950653 0.031410757 0
    outer loop
      vertex 1.5047358 4.0506973 4.8
      vertex 1.5047358 4.0506973 3.2
      vertex 1.5 3.9 4.8
    endloop
  endfacet
  facet normal -0.91775465 0.3971479 0
    outer loop
      vertex 1.6685364 4.783499 3.2
      vertex 1.6685364 4.783499 4.8
      vertex 1.7284151 4.92187 3.2
    endloop
  endfacet
  facet normal -0.9408808 0.33873793 0
    outer loop
      vertex 1.6174643 4.6416407 3.2
      vertex 1.6174643 4.6416407 4.8
      vertex 1.6685364 4.783499 3.2
    endloop
  endfacet
  facet normal -0.9602937 0.2789911 0
    outer loop
      vertex 1.5754005 4.4968557 3.2
      vertex 1.5754005 4.4968557 4.8
      vertex 1.6174643 4.6416407 3.2
    endloop
  endfacet
  facet normal -0.97591674 0.21814324 0
    outer loop
      vertex 1.5425106 4.349715 3.2
      vertex 1.5425106 4.349715 4.8
      vertex 1.5754005 4.4968557 3.2
    endloop
  endfacet
  facet normal -0.98768836 0.15643446 0
    outer loop
      vertex 1.5189247 4.2008 3.2
      vertex 1.5189247 4.2008 4.8
      vertex 1.5425106 4.349715 3.2
    endloop
  endfacet
  facet normal -0.99556196 0.09410831 0
    outer loop
      vertex 1.5047358 4.0506973 3.2
      vertex 1.5047358 4.0506973 4.8
      vertex 1.5189247 4.2008 3.2
    endloop
  endfacet
  facet normal -0.99950653 0.031410757 0
    outer loop
      vertex 1.5 3.9 3.2
      vertex 1.5 3.9 4.8
      vertex 1.5047358 4.0506973 3.2
    endloop
  endfacet
  facet normal -0.75011104 0.66131186 0
    outer loop
      vertex 2.0507681 5.4298177 3.2
      vertex 2.0507681 5.4298177 4.8
      vertex 2.1504753 5.542913 3.2
    endloop
  endfacet
  facet normal -0.2789911 -0.9602937 0
    outer loop
      vertex 3.1583593 1.6174643 3.2
      vertex 3.3031442 1.5754005 4.8
      vertex 3.1583593 1.6174643 4.8
    endloop
  endfacet
  facet normal -0.21814324 -0.97591674 0
    outer loop
      vertex 3.3031442 1.5754005 3.2
      vertex 3.450285 1.5425106 4.8
      vertex 3.3031442 1.5754005 4.8
    endloop
  endfacet
  facet normal -0.15643446 -0.98768836 0
    outer loop
      vertex 3.450285 1.5425106 3.2
      vertex 3.5992002 1.5189247 4.8
      vertex 3.450285 1.5425106 4.8
    endloop
  endfacet
  facet normal -0.09410831 -0.99556196 0
    outer loop
      vertex 3.5992002 1.5189247 3.2
      vertex 3.7493029 1.5047358 4.8
      vertex 3.5992002 1.5189247 4.8
    endloop
  endfacet
  facet normal -0.031410757 -0.99950653 0
    outer loop
      vertex 3.7493029 1.5047358 3.2
      vertex 3.9 1.5 4.8
      vertex 3.7493029 1.5047358 4.8
    endloop
  endfacet
  facet normal -0.790155 -0.61290705 0
    outer loop
      vertex 2.0507681 2.3701825 3.2
      vertex 2.0507681 2.3701825 4.8
      vertex 1.9583592 2.4893155 3.2
    endloop
  endfacet
  facet normal -0.75011104 -0.66131186 0
    outer loop
      vertex 2.1504753 2.257087 3.2
      vertex 2.1504753 2.257087 4.8
      vertex 2.0507681 2.3701825 3.2
    endloop
  endfacet
  facet normal -0.70710677 -0.70710677 0
    outer loop
      vertex 2.257087 2.1504753 3.2
      vertex 2.257087 2.1504753 4.8
      vertex 2.1504753 2.257087 3.2
    endloop
  endfacet
  facet normal -0.66131186 -0.75011104 0
    outer loop
      vertex 2.3701825 2.0507681 3.2
      vertex 2.3701825 2.0507681 4.8
      vertex 2.257087 2.1504753 3.2
    endloop
  endfacet
  facet normal 0.031410757 -0.99950653 0
    outer loop
      vertex 3.9 1.5 3.2
      vertex 4.0506973 1.5047358 4.8
      vertex 3.9 1.5 4.8
    endloop
  endfacet
  facet normal 0.5090414 -0.86074203 0
    outer loop
      vertex 5.185984 1.873613 3.2
      vertex 5.185984 1.873613 4.8
      vertex 5.0562086 1.7968639 3.2
    endloop
  endfacet
  facet normal 0.4539905 -0.8910065 0
    outer loop
      vertex 5.0562086 1.7968639 3.2
      vertex 5.0562086 1.7968639 4.8
      vertex 4.92187 1.7284151 3.2
    endloop
  endfacet
  facet normal 0.3971479 -0.91775465 0
    outer loop
      vertex 4.92187 1.7284151 3.2
      vertex 4.92187 1.7284151 4.8
      vertex 4.783499 1.6685364 3.2
    endloop
  endfacet
  facet normal 0.3971479 -0.91775465 0
    outer loop
      vertex 4.783499 1.6685364 3.2
      vertex 4.92187 1.7284151 4.8
      vertex 4.783499 1.6685364 4.8
    endloop
  endfacet
  facet normal 0.33873793 -0.9408808 0
    outer loop
      vertex 4.6416407 1.6174643 3.2
      vertex 4.783499 1.6685364 4.8
      vertex 4.6416407 1.6174643 4.8
    endloop
  endfacet
  facet normal 0.2789911 -0.9602937 0
    outer loop
      vertex 4.4968557 1.5754005 3.2
      vertex 4.6416407 1.6174643 4.8
      vertex 4.4968557 1.5754005 4.8
    endloop
  endfacet
  facet normal 0.21814324 -0.97591674 0
    outer loop
      vertex 4.349715 1.5425106 3.2
      vertex 4.4968557 1.5754005 4.8
      vertex 4.349715 1.5425106 4.8
    endloop
  endfacet
  facet normal 0.15643446 -0.98768836 0
    outer loop
      vertex 4.2008 1.5189247 3.2
      vertex 4.349715 1.5425106 4.8
      vertex 4.2008 1.5189247 4.8
    endloop
  endfacet
  facet normal 0.09410831 -0.99556196 0
    outer loop
      vertex 4.0506973 1.5047358 3.2
      vertex 4.2008 1.5189247 4.8
      vertex 4.0506973 1.5047358 4.8
    endloop
  endfacet
  facet normal 0.56208336 -0.82708055 0
    outer loop
      vertex 5.3106847 1.9583592 3.2
      vertex 5.3106847 1.9583592 4.8
      vertex 5.185984 1.873613 3.2
    endloop
  endfacet
  facet normal 0.33873793 -0.9408808 0
    outer loop
      vertex 4.783499 1.6685364 3.2
      vertex 4.783499 1.6685364 4.8
      vertex 4.6416407 1.6174643 3.2
    endloop
  endfacet
  facet normal 0.2789911 -0.9602937 0
    outer loop
      vertex 4.6416407 1.6174643 3.2
      vertex 4.6416407 1.6174643 4.8
      vertex 4.4968557 1.5754005 3.2
    endloop
  endfacet
  facet normal 0.21814324 -0.97591674 0
    outer loop
      vertex 4.4968557 1.5754005 3.2
      vertex 4.4968557 1.5754005 4.8
      vertex 4.349715 1.5425106 3.2
    endloop
  endfacet
  facet normal 0.15643446 -0.98768836 0
    outer loop
      vertex 4.349715 1.5425106 3.2
      vertex 4.349715 1.5425106 4.8
      vertex 4.2008 1.5189247 3.2
    endloop
  endfacet
  facet normal 0.09410831 -0.99556196 0
    outer loop
      vertex 4.2008 1.5189247 3.2
      vertex 4.2008 1.5189247 4.8
      vertex 4.0506973 1.5047358 3.2
    endloop
  endfacet
  facet normal 0.031410757 -0.99950653 0
    outer loop
      vertex 4.0506973 1.5047358 3.2
      vertex 4.0506973 1.5047358 4.8
      vertex 3.9 1.5 3.2
    endloop
  endfacet
  facet normal 0 0 1
    outer loop
      vertex 1.5189247 3.5992002 4.8
      vertex 1.5425106 3.450285 4.8
      vertex 1.5189247 4.2008 4.8
    endloop
  endfacet
  facet normal 0 0 1
    outer loop
      vertex 1.5047358 3.7493029 4.8
      vertex 1.5189247 3.5992002 4.8
      vertex 1.5047358 4.0506973 4.8
    endloop
  endfacet
  facet normal 0 0 1
    outer loop
      vertex 1.7284151 2.8781297 4.8
      vertex 1.7968639 2.743791 4.8
      vertex 1.7284151 4.92187 4.8
    endloop
  endfacet
  facet normal 0 0 1
    outer loop
      vertex 4.783499 1.6685364 4.8
      vertex 4.92187 1.7284151 4.8
      vertex 4.783499 6.1314635 4.8
    endloop
  endfacet
  facet normal 0.75011104 -0.66131186 0
    outer loop
      vertex 5.6495247 2.257087 4.8
      vertex 5.6495247 2.257087 3.2
      vertex 5.749232 2.3701825 4.8
    endloop
  endfacet
  facet normal 0.70710677 -0.70710677 0
    outer loop
      vertex 5.542913 2.1504753 4.8
      vertex 5.542913 2.1504753 3.2
      vertex 5.6495247 2.257087 4.8
    endloop
  endfacet
  facet normal 0.66131186 -0.75011104 0
    outer loop
      vertex 5.4298177 2.0507681 3.2
      vertex 5.542913 2.1504753 4.8
      vertex 5.4298177 2.0507681 4.8
    endloop
  endfacet
  facet normal 0.61290705 -0.790155 0
    outer loop
      vertex 5.3106847 1.9583592 3.2
      vertex 5.4298177 2.0507681 4.8
      vertex 5.3106847 1.9583592 4.8
    endloop
  endfacet
  facet normal 0.790155 -0.61290705 0
    outer loop
      vertex 5.841641 2.4893155 3.2
      vertex 5.841641 2.4893155 4.8
      vertex 5.749232 2.3701825 3.2
    endloop
  endfacet
  facet normal 0.75011104 -0.66131186 0
    outer loop
      vertex 5.749232 2.3701825 3.2
      vertex 5.749232 2.3701825 4.8
      vertex 5.6495247 2.257087 3.2
    endloop
  endfacet
  facet normal 0.70710677 -0.70710677 0
    outer loop
      vertex 5.6495247 2.257087 3.2
      vertex 5.6495247 2.257087 4.8
      vertex 5.542913 2.1504753 3.2
    endloop
  endfacet
  facet normal -0.790155 -0.61290705 0
    outer loop
      vertex 1.9583592 2.4893155 4.8
      vertex 1.9583592 2.4893155 3.2
      vertex 2.0507681 2.3701825 4.8
    endloop
  endfacet
  facet normal 0.61290705 -0.790155 0
    outer loop
      vertex 5.4298177 2.0507681 3.2
      vertex 5.4298177 2.0507681 4.8
      vertex 5.3106847 1.9583592 3.2
    endloop
  endfacet
  facet normal 0 0 1
    outer loop
      vertex 1.7968639 2.743791 4.8
      vertex 1.873613 2.6140156 4.8
      vertex 1.7968639 5.0562086 4.8
    endloop
  endfacet
  facet normal 0 0 1
    outer loop
      vertex 4.6416407 1.6174643 4.8
      vertex 4.783499 1.6685364 4.8
      vertex 4.6416407 6.1825356 4.8
    endloop
  endfacet
  facet normal 0 0 1
    outer loop
      vertex 4.4968557 1.5754005 4.8
      vertex 4.6416407 1.6174643 4.8
      vertex 4.4968557 6.2245994 4.8
    endloop
  endfacet
  facet normal 0 0 1
    outer loop
      vertex 4.349715 1.5425106 4.8
      vertex 4.4968557 1.5754005 4.8
      vertex 4.349715 6.257489 4.8
    endloop
  endfacet
  facet normal 0 0 1
    outer loop
      vertex 4.2008 1.5189247 4.8
      vertex 4.349715 1.5425106 4.8
      vertex 4.2008 6.2810755 4.8
    endloop
  endfacet
  facet normal 0 0 1
    outer loop
      vertex 4.0506973 1.5047358 4.8
      vertex 4.2008 1.5189247 4.8
      vertex 4.0506973 6.2952642 4.8
    endloop
  endfacet
  facet normal 0 0 1
    outer loop
      vertex 3.9 6.3 4.8
      vertex 3.9 1.5 4.8
      vertex 4.0506973 1.5047358 4.8
    endloop
  endfacet
  facet normal 0.56208336 -0.82708055 0
    outer loop
      vertex 5.185984 1.873613 3.2
      vertex 5.3106847 1.9583592 4.8
      vertex 5.185984 1.873613 4.8
    endloop
  endfacet
  facet normal 0.5090414 -0.86074203 0
    outer loop
      vertex 5.0562086 1.7968639 3.2
      vertex 5.185984 1.873613 4.8
      vertex 5.0562086 1.7968639 4.8
    endloop
  endfacet
  facet normal 0.4539905 -0.8910065 0
    outer loop
      vertex 4.92187 1.7284151 3.2
      vertex 5.0562086 1.7968639 4.8
      vertex 4.92187 1.7284151 4.8
    endloop
  endfacet
  facet normal 0 0 1
    outer loop
      vertex 3.0165012 6.1314635 4.8
      vertex 3.1583593 1.6174643 4.8
      vertex 3.1583593 6.1825356 4.8
    endloop
  endfacet
  facet normal -0.56208336 0.82708055 0
    outer loop
      vertex 2.4893155 5.841641 3.2
      vertex 2.4893155 5.841641 4.8
      vertex 2.6140156 5.926387 3.2
    endloop
  endfacet
  facet normal -0.56208336 -0.82708055 0
    outer loop
      vertex 2.6140156 1.873613 3.2
      vertex 2.6140156 1.873613 4.8
      vertex 2.4893155 1.9583592 3.2
    endloop
  endfacet
  facet normal -0.5090414 -0.86074203 0
    outer loop
      vertex 2.743791 1.7968639 3.2
      vertex 2.743791 1.7968639 4.8
      vertex 2.6140156 1.873613 3.2
    endloop
  endfacet
  facet normal -0.4539905 -0.8910065 0
    outer loop
      vertex 2.8781297 1.7284151 3.2
      vertex 2.8781297 1.7284151 4.8
      vertex 2.743791 1.7968639 3.2
    endloop
  endfacet
  facet normal 0 0 1
    outer loop
      vertex 3.7493029 6.2952642 4.8
      vertex 3.9 1.5 4.8
      vertex 3.9 6.3 4.8
    endloop
  endfacet
  facet normal 0 0 1
    outer loop
      vertex 3.5992002 6.2810755 4.8
      vertex 3.7493029 1.5047358 4.8
      vertex 3.7493029 6.2952642 4.8
    endloop
  endfacet
  facet normal 0 0 1
    outer loop
      vertex 3.450285 6.257489 4.8
      vertex 3.5992002 1.5189247 4.8
      vertex 3.5992002 6.2810755 4.8
    endloop
  endfacet
  facet normal 0 0 1
    outer loop
      vertex 3.3031442 6.2245994 4.8
      vertex 3.450285 1.5425106 4.8
      vertex 3.450285 6.257489 4.8
    endloop
  endfacet
  facet normal 0 0 1
    outer loop
      vertex 3.1583593 6.1825356 4.8
      vertex 3.3031442 1.5754005 4.8
      vertex 3.3031442 6.2245994 4.8
    endloop
  endfacet
  facet normal -0.5090414 0.86074203 0
    outer loop
      vertex 2.6140156 5.926387 3.2
      vertex 2.6140156 5.926387 4.8
      vertex 2.743791 6.003136 3.2
    endloop
  endfacet
  facet normal 0 0 1
    outer loop
      vertex 2.8781297 6.0715847 4.8
      vertex 3.0165012 1.6685364 4.8
      vertex 3.0165012 6.1314635 4.8
    endloop
  endfacet
  facet normal -0.61290705 0.790155 0
    outer loop
      vertex 2.4893155 5.841641 3.2
      vertex 2.3701825 5.749232 4.8
      vertex 2.4893155 5.841641 4.8
    endloop
  endfacet
  facet normal -0.66131186 0.75011104 0
    outer loop
      vertex 2.3701825 5.749232 3.2
      vertex 2.257087 5.6495247 4.8
      vertex 2.3701825 5.749232 4.8
    endloop
  endfacet
  facet normal -0.70710677 0.70710677 0
    outer loop
      vertex 2.257087 5.6495247 4.8
      vertex 2.257087 5.6495247 3.2
      vertex 2.1504753 5.542913 4.8
    endloop
  endfacet
  facet normal -0.75011104 0.66131186 0
    outer loop
      vertex 2.1504753 5.542913 4.8
      vertex 2.1504753 5.542913 3.2
      vertex 2.0507681 5.4298177 4.8
    endloop
  endfacet
  facet normal -0.790155 0.61290705 0
    outer loop
      vertex 2.0507681 5.4298177 4.8
      vertex 2.0507681 5.4298177 3.2
      vertex 1.9583592 5.3106847 4.8
    endloop
  endfacet
  facet normal -0.61290705 0.790155 0
    outer loop
      vertex 2.3701825 5.749232 3.2
      vertex 2.3701825 5.749232 4.8
      vertex 2.4893155 5.841641 3.2
    endloop
  endfacet
  facet normal -0.66131186 0.75011104 0
    outer loop
      vertex 2.257087 5.6495247 3.2
      vertex 2.257087 5.6495247 4.8
      vertex 2.3701825 5.749232 3.2
    endloop
  endfacet
  facet normal -0.70710677 0.70710677 0
    outer loop
      vertex 2.1504753 5.542913 3.2
      vertex 2.1504753 5.542913 4.8
      vertex 2.257087 5.6495247 3.2
    endloop
  endfacet
  facet normal -0.09410831 0.99556196 0
    outer loop
      vertex 3.5992002 6.2810755 3.2
      vertex 3.5992002 6.2810755 4.8
      vertex 3.7493029 6.2952642 3.2
    endloop
  endfacet
  facet normal 0 0 1
    outer loop
      vertex 1.873613 2.6140156 4.8
      vertex 1.9583592 2.4893155 4.8
      vertex 1.873613 5.185984 4.8
    endloop
  endfacet
  facet normal -0.031410757 0.99950653 0
    outer loop
      vertex 3.9 6.3 3.2
      vertex 3.7493029 6.2952642 4.8
      vertex 3.9 6.3 4.8
    endloop
  endfacet
  facet normal -0.09410831 0.99556196 0
    outer loop
      vertex 3.7493029 6.2952642 3.2
      vertex 3.5992002 6.2810755 4.8
      vertex 3.7493029 6.2952642 4.8
    endloop
  endfacet
  facet normal -0.15643446 0.98768836 0
    outer loop
      vertex 3.5992002 6.2810755 3.2
      vertex 3.450285 6.257489 4.8
      vertex 3.5992002 6.2810755 4.8
    endloop
  endfacet
  facet normal -0.21814324 0.97591674 0
    outer loop
      vertex 3.450285 6.257489 3.2
      vertex 3.3031442 6.2245994 4.8
      vertex 3.450285 6.257489 4.8
    endloop
  endfacet
  facet normal -0.2789911 0.9602937 0
    outer loop
      vertex 3.3031442 6.2245994 3.2
      vertex 3.1583593 6.1825356 4.8
      vertex 3.3031442 6.2245994 4.8
    endloop
  endfacet
  facet normal -0.33873793 0.9408808 0
    outer loop
      vertex 3.1583593 6.1825356 3.2
      vertex 3.0165012 6.1314635 4.8
      vertex 3.1583593 6.1825356 4.8
    endloop
  endfacet
  facet normal -0.3971479 0.91775465 0
    outer loop
      vertex 3.0165012 6.1314635 3.2
      vertex 2.8781297 6.0715847 4.8
      vertex 3.0165012 6.1314635 4.8
    endloop
  endfacet
  facet normal -0.031410757 0.99950653 0
    outer loop
      vertex 3.7493029 6.2952642 4.8
      vertex 3.9 6.3 3.2
      vertex 3.7493029 6.2952642 3.2
    endloop
  endfacet
  facet normal 0.790155 -0.61290705 0
    outer loop
      vertex 5.749232 2.3701825 4.8
      vertex 5.749232 2.3701825 3.2
      vertex 5.841641 2.4893155 4.8
    endloop
  endfacet
  facet normal -0.15643446 0.98768836 0
    outer loop
      vertex 3.450285 6.257489 3.2
      vertex 3.450285 6.257489 4.8
      vertex 3.5992002 6.2810755 3.2
    endloop
  endfacet
  facet normal -0.21814324 0.97591674 0
    outer loop
      vertex 3.3031442 6.2245994 3.2
      vertex 3.3031442 6.2245994 4.8
      vertex 3.450285 6.257489 3.2
    endloop
  endfacet
  facet normal -0.2789911 0.9602937 0
    outer loop
      vertex 3.1583593 6.1825356 3.2
      vertex 3.1583593 6.1825356 4.8
      vertex 3.3031442 6.2245994 3.2
    endloop
  endfacet
  facet normal -0.33873793 0.9408808 0
    outer loop
      vertex 3.0165012 6.1314635 3.2
      vertex 3.0165012 6.1314635 4.8
      vertex 3.1583593 6.1825356 3.2
    endloop
  endfacet
  facet normal -0.4539905 0.8910065 0
    outer loop
      vertex 2.8781297 6.0715847 3.2
      vertex 2.743791 6.003136 4.8
      vertex 2.8781297 6.0715847 4.8
    endloop
  endfacet
  facet normal -0.5090414 0.86074203 0
    outer loop
      vertex 2.743791 6.003136 3.2
      vertex 2.6140156 5.926387 4.8
      vertex 2.743791 6.003136 4.8
    endloop
  endfacet
  facet normal -0.56208336 0.82708055 0
    outer loop
      vertex 2.6140156 5.926387 3.2
      vertex 2.4893155 5.841641 4.8
      vertex 2.6140156 5.926387 4.8
    endloop
  endfacet
  facet normal -0.3971479 0.91775465 0
    outer loop
      vertex 2.8781297 6.0715847 3.2
      vertex 2.8781297 6.0715847 4.8
      vertex 3.0165012 6.1314635 3.2
    endloop
  endfacet
  facet normal -0.4539905 0.8910065 0
    outer loop
      vertex 2.743791 6.003136 3.2
      vertex 2.743791 6.003136 4.8
      vertex 2.8781297 6.0715847 3.2
    endloop
  endfacet
endsolid OpenSCAD_Model
